  0
SECTION
  2
HEADER
  9
$ACADVER
  1
AC1014
  9
$ACADMAINTVER
 70
     9
  9
$DWGCODEPAGE
  3
ANSI_1252
  9
$INSBASE
 10
0.0
 20
0.0
 30
0.0
  9
$EXTMIN
 10
1.000000000000000E+20
 20
1.000000000000000E+20
 30
1.000000000000000E+20
  9
$EXTMAX
 10
-1.000000000000000E+20
 20
-1.000000000000000E+20
 30
-1.000000000000000E+20
  9
$LIMMIN
 10
0.0
 20
0.0
  9
$LIMMAX
 10
12.0
 20
9.0
  9
$ORTHOMODE
 70
     0
  9
$REGENMODE
 70
     1
  9
$FILLMODE
 70
     1
  9
$QTEXTMODE
 70
     0
  9
$MIRRTEXT
 70
     1
  9
$DRAGMODE
 70
     2
  9
$LTSCALE
 40
1.0
  9
$OSMODE
 70
    37
  9
$ATTMODE
 70
     1
  9
$TEXTSIZE
 40
0.2
  9
$TRACEWID
 40
0.05
  9
$TEXTSTYLE
  7
STANDARD
  9
$CLAYER
  8
0
  9
$CELTYPE
  6
BYLAYER
  9
$CECOLOR
 62
   256
  9
$CELTSCALE
 40
1.0
  9
$DELOBJ
 70
     1
  9
$DISPSILH
 70
     0
  9
$DIMSCALE
 40
1.0
  9
$DIMASZ
 40
0.18
  9
$DIMEXO
 40
0.0625
  9
$DIMDLI
 40
0.38
  9
$DIMRND
 40
0.0
  9
$DIMDLE
 40
0.0
  9
$DIMEXE
 40
0.18
  9
$DIMTP
 40
0.0
  9
$DIMTM
 40
0.0
  9
$DIMTXT
 40
0.18
  9
$DIMCEN
 40
0.09
  9
$DIMTSZ
 40
0.0
  9
$DIMTOL
 70
     0
  9
$DIMLIM
 70
     0
  9
$DIMTIH
 70
     1
  9
$DIMTOH
 70
     1
  9
$DIMSE1
 70
     0
  9
$DIMSE2
 70
     0
  9
$DIMTAD
 70
     0
  9
$DIMZIN
 70
     0
  9
$DIMBLK
  1

  9
$DIMASO
 70
     1
  9
$DIMSHO
 70
     1
  9
$DIMPOST
  1

  9
$DIMAPOST
  1

  9
$DIMALT
 70
     0
  9
$DIMALTD
 70
     2
  9
$DIMALTF
 40
25.4
  9
$DIMLFAC
 40
1.0
  9
$DIMTOFL
 70
     0
  9
$DIMTVP
 40
0.0
  9
$DIMTIX
 70
     0
  9
$DIMSOXD
 70
     0
  9
$DIMSAH
 70
     0
  9
$DIMBLK1
  1

  9
$DIMBLK2
  1

  9
$DIMSTYLE
  2
STANDARD
  9
$DIMCLRD
 70
     0
  9
$DIMCLRE
 70
     0
  9
$DIMCLRT
 70
     0
  9
$DIMTFAC
 40
1.0
  9
$DIMGAP
 40
0.09
  9
$DIMJUST
 70
     0
  9
$DIMSD1
 70
     0
  9
$DIMSD2
 70
     0
  9
$DIMTOLJ
 70
     1
  9
$DIMTZIN
 70
     0
  9
$DIMALTZ
 70
     0
  9
$DIMALTTZ
 70
     0
  9
$DIMFIT
 70
     3
  9
$DIMUPT
 70
     0
  9
$DIMUNIT
 70
     2
  9
$DIMDEC
 70
     4
  9
$DIMTDEC
 70
     4
  9
$DIMALTU
 70
     2
  9
$DIMALTTD
 70
     2
  9
$DIMTXSTY
  7
STANDARD
  9
$DIMAUNIT
 70
     0
  9
$LUNITS
 70
     2
  9
$LUPREC
 70
     4
  9
$SKETCHINC
 40
0.1
  9
$FILLETRAD
 40
0.5
  9
$AUNITS
 70
     0
  9
$AUPREC
 70
     0
  9
$MENU
  1
.
  9
$ELEVATION
 40
0.0
  9
$PELEVATION
 40
0.0
  9
$THICKNESS
 40
0.0
  9
$LIMCHECK
 70
     0
  9
$CHAMFERA
 40
0.5
  9
$CHAMFERB
 40
0.5
  9
$CHAMFERC
 40
1.0
  9
$CHAMFERD
 40
0.0
  9
$SKPOLY
 70
     0
  9
$TDCREATE
 40
2459288.493683877
  9
$TDUPDATE
 40
2459288.49368397
  9
$TDINDWG
 40
0.0000000116
  9
$TDUSRTIMER
 40
0.0000000116
  9
$USRTIMER
 70
     1
  9
$ANGBASE
 50
0.0
  9
$ANGDIR
 70
     0
  9
$PDMODE
 70
     0
  9
$PDSIZE
 40
0.0
  9
$PLINEWID
 40
0.0
  9
$COORDS
 70
     1
  9
$SPLFRAME
 70
     0
  9
$SPLINETYPE
 70
     6
  9
$SPLINESEGS
 70
     8
  9
$ATTDIA
 70
     0
  9
$ATTREQ
 70
     1
  9
$HANDLING
 70
     1
  9
$HANDSEED
  5
9B
  9
$SURFTAB1
 70
     6
  9
$SURFTAB2
 70
     6
  9
$SURFTYPE
 70
     6
  9
$SURFU
 70
     6
  9
$SURFV
 70
     6
  9
$UCSNAME
  2

  9
$UCSORG
 10
0.0
 20
0.0
 30
0.0
  9
$UCSXDIR
 10
1.0
 20
0.0
 30
0.0
  9
$UCSYDIR
 10
0.0
 20
1.0
 30
0.0
  9
$PUCSNAME
  2

  9
$PUCSORG
 10
0.0
 20
0.0
 30
0.0
  9
$PUCSXDIR
 10
1.0
 20
0.0
 30
0.0
  9
$PUCSYDIR
 10
0.0
 20
1.0
 30
0.0
  9
$USERI1
 70
     0
  9
$USERI2
 70
     0
  9
$USERI3
 70
     0
  9
$USERI4
 70
     0
  9
$USERI5
 70
     0
  9
$USERR1
 40
0.0
  9
$USERR2
 40
0.0
  9
$USERR3
 40
0.0
  9
$USERR4
 40
0.0
  9
$USERR5
 40
0.0
  9
$WORLDVIEW
 70
     1
  9
$SHADEDGE
 70
     3
  9
$SHADEDIF
 70
    70
  9
$TILEMODE
 70
     1
  9
$MAXACTVP
 70
    64
  9
$PINSBASE
 10
0.0
 20
0.0
 30
0.0
  9
$PLIMCHECK
 70
     0
  9
$PEXTMIN
 10
1.000000000000000E+20
 20
1.000000000000000E+20
 30
1.000000000000000E+20
  9
$PEXTMAX
 10
-1.000000000000000E+20
 20
-1.000000000000000E+20
 30
-1.000000000000000E+20
  9
$PLIMMIN
 10
0.0
 20
0.0
  9
$PLIMMAX
 10
12.0
 20
9.0
  9
$UNITMODE
 70
     0
  9
$VISRETAIN
 70
     1
  9
$PLINEGEN
 70
     0
  9
$PSLTSCALE
 70
     1
  9
$TREEDEPTH
 70
  3020
  9
$PICKSTYLE
 70
     1
  9
$CMLSTYLE
  2
STANDARD
  9
$CMLJUST
 70
     0
  9
$CMLSCALE
 40
1.0
  9
$PROXYGRAPHICS
 70
     1
  9
$MEASUREMENT
 70
     0
  0
ENDSEC
  0
SECTION
  2
CLASSES
  0
CLASS
  1
ACDBDICTIONARYWDFLT
  2
AcDbDictionaryWithDefault
  3
ObjectDBX Classes
 90
        0
280
     0
281
     0
  0
CLASS
  1
VISUALSTYLE
  2
AcDbVisualStyle
  3
ObjectDBX Classes
 90
     4095
280
     0
281
     0
  0
CLASS
  1
MATERIAL
  2
AcDbMaterial
  3
ObjectDBX Classes
 90
     1153
280
     0
281
     0
  0
CLASS
  1
SUN
  2
AcDbSun
  3
SCENEOE
 90
     1024
280
     0
281
     0
  0
CLASS
  1
DICTIONARYVAR
  2
AcDbDictionaryVar
  3
ObjectDBX Classes
 90
        0
280
     0
281
     0
  0
CLASS
  1
XRECORD
  2
AcDbXrecord
  3
AutoCAD 2000
 90
        0
280
     0
281
     0
  0
CLASS
  1
LWPOLYLINE
  2
AcDbPolyline
  3
AutoCAD 2000
 90
        0
280
     0
281
     1
  0
CLASS
  1
HATCH
  2
AcDbHatch
  3
AutoCAD 2000
 90
        0
280
     0
281
     1
  0
CLASS
  1
ACDBPLACEHOLDER
  2
AcDbPlaceHolder
  3
ObjectDBX Classes
 90
        0
280
     0
281
     0
  0
CLASS
  1
LAYOUT
  2
AcDbLayout
  3
ObjectDBX Classes
 90
        0
280
     0
281
     0
  0
ENDSEC
  0
SECTION
  2
TABLES
  0
TABLE
  2
VPORT
  5
8
330
0
100
AcDbSymbolTable
 70
     1
  0
VPORT
  5
29
330
8
100
AcDbSymbolTableRecord
100
AcDbViewportTableRecord
  2
*ACTIVE
 70
     0
 10
0.0
 20
0.0
 11
1.0
 21
1.0
 12
0.0
 22
0.0
 13
0.0
 23
0.0
 14
0.5
 24
0.5
 15
0.5
 25
0.5
 16
0.0
 26
0.0
 36
1.0
 17
104.9999999737534
 27
-148.4999999628701
 37
0.0
 40
296.9999999257402
 41
0.7070707070707533
 42
50.0
 43
0.0
 44
0.0
 50
0.0
 51
0.0
 71
     0
 72
   100
 73
     1
 74
     3
 75
     0
 76
     0
 77
     0
 78
     0
  0
ENDTAB
  0
TABLE
  2
LTYPE
  5
5
330
0
100
AcDbSymbolTable
 70
     1
  0
LTYPE
  5
14
330
5
100
AcDbSymbolTableRecord
100
AcDbLinetypeTableRecord
  2
BYBLOCK
 70
     0
  3

 72
    65
 73
     0
 40
0.0
  0
LTYPE
  5
15
330
5
100
AcDbSymbolTableRecord
100
AcDbLinetypeTableRecord
  2
BYLAYER
 70
     0
  3

 72
    65
 73
     0
 40
0.0
  0
LTYPE
  5
16
330
5
100
AcDbSymbolTableRecord
100
AcDbLinetypeTableRecord
  2
CONTINUOUS
 70
     0
  3
Solid line
 72
    65
 73
     0
 40
0.0
  0
ENDTAB
  0
TABLE
  2
LAYER
  5
2
330
0
100
AcDbSymbolTable
 70
     2
  0
LAYER
  5
10
330
2
100
AcDbSymbolTableRecord
100
AcDbLayerTableRecord
  2
0
 70
     0
 62
     7
  6
CONTINUOUS
  0
LAYER
  5
40
330
2
100
AcDbSymbolTableRecord
100
AcDbLayerTableRecord
  2
LAYER_1
 70
     0
 62
     7
  6
CONTINUOUS
  0
ENDTAB
  0
TABLE
  2
STYLE
  5
3
330
0
100
AcDbSymbolTable
 70
     1
  0
STYLE
  5
11
330
3
100
AcDbSymbolTableRecord
100
AcDbTextStyleTableRecord
  2
STANDARD
 70
     0
 40
0.0
 41
1.0
 50
0.0
 71
     0
 42
0.2
  3
txt
  4

  0
ENDTAB
  0
TABLE
  2
VIEW
  5
6
330
0
100
AcDbSymbolTable
 70
     0
  0
ENDTAB
  0
TABLE
  2
UCS
  5
7
330
0
100
AcDbSymbolTable
 70
     0
  0
ENDTAB
  0
TABLE
  2
APPID
  5
9
330
0
100
AcDbSymbolTable
 70
     1
  0
APPID
  5
12
330
9
100
AcDbSymbolTableRecord
100
AcDbRegAppTableRecord
  2
ACAD
 70
     0
  0
ENDTAB
  0
TABLE
  2
DIMSTYLE
  5
A
330
0
100
AcDbSymbolTable
 70
     1
  0
DIMSTYLE
105
27
330
A
100
AcDbSymbolTableRecord
100
AcDbDimStyleTableRecord
  2
STANDARD
 70
     0
  3

  4

  5

  6

  7

 40
1.0
 41
0.18
 42
0.0625
 43
0.38
 44
0.18
 45
0.0
 46
0.0
 47
0.0
 48
0.0
140
0.18
141
0.09
142
0.0
143
25.4
144
1.0
145
0.0
146
1.0
147
0.09
 71
     0
 72
     0
 73
     1
 74
     1
 75
     0
 76
     0
 77
     0
 78
     0
170
     0
171
     2
172
     0
173
     0
174
     0
175
     0
176
     0
177
     0
178
     0
270
     2
271
     4
272
     4
273
     2
274
     2
340
11
275
     0
280
     0
281
     0
282
     0
283
     1
284
     0
285
     0
286
     0
287
     3
288
     0
  0
ENDTAB
  0
TABLE
  2
BLOCK_RECORD
  5
1
330
0
100
AcDbSymbolTable
 70
     1
  0
BLOCK_RECORD
  5
1F
330
1
100
AcDbSymbolTableRecord
100
AcDbBlockTableRecord
  2
*MODEL_SPACE
  0
BLOCK_RECORD
  5
1B
330
1
100
AcDbSymbolTableRecord
100
AcDbBlockTableRecord
  2
*PAPER_SPACE
  0
ENDTAB
  0
ENDSEC
  0
SECTION
  2
BLOCKS
  0
BLOCK
  5
20
330
1F
100
AcDbEntity
  8
0
100
AcDbBlockBegin
  2
*MODEL_SPACE
 70
     0
 10
0.0
 20
0.0
 30
0.0
  3
*MODEL_SPACE
  1

  0
ENDBLK
  5
21
330
1F
100
AcDbEntity
  8
0
100
AcDbBlockEnd
  0
BLOCK
  5
1C
330
1B
100
AcDbEntity
 67
     1
  8
0
100
AcDbBlockBegin
  2
*PAPER_SPACE
 70
     0
 10
0.0
 20
0.0
 30
0.0
  3
*PAPER_SPACE
  1

  0
ENDBLK
  5
1D
330
1B
100
AcDbEntity
 67
     1
  8
0
100
AcDbBlockEnd
  0
ENDSEC
  0
SECTION
  2
ENTITIES
  0
SPLINE
  5
41
330
1F
100
AcDbEntity
  8
LAYER_1
 62
     7
100
AcDbSpline
210
0.0
220
0.0
230
1.0
 70
    11
 71
     3
 72
   128
 73
   124
 74
     0
 42
0.0000000001
 43
0.0000000001
 12
1.0
 22
0.0
 32
0.0
 13
1.0
 23
0.0
 33
0.0
 40
0.0
 40
0.0
 40
0.0
 40
0.0
 40
1.0
 40
1.0
 40
1.0
 40
2.0
 40
2.0
 40
2.0
 40
3.0
 40
3.0
 40
3.0
 40
4.0
 40
4.0
 40
4.0
 40
5.0
 40
5.0
 40
5.0
 40
6.0
 40
6.0
 40
6.0
 40
7.0
 40
7.0
 40
7.0
 40
8.0
 40
8.0
 40
8.0
 40
9.0
 40
9.0
 40
9.0
 40
10.0
 40
10.0
 40
10.0
 40
11.0
 40
11.0
 40
11.0
 40
12.0
 40
12.0
 40
12.0
 40
13.0
 40
13.0
 40
13.0
 40
14.0
 40
14.0
 40
14.0
 40
15.0
 40
15.0
 40
15.0
 40
16.0
 40
16.0
 40
16.0
 40
17.0
 40
17.0
 40
17.0
 40
18.0
 40
18.0
 40
18.0
 40
19.0
 40
19.0
 40
19.0
 40
20.0
 40
20.0
 40
20.0
 40
21.0
 40
21.0
 40
21.0
 40
22.0
 40
22.0
 40
22.0
 40
23.0
 40
23.0
 40
23.0
 40
24.0
 40
24.0
 40
24.0
 40
25.0
 40
25.0
 40
25.0
 40
26.0
 40
26.0
 40
26.0
 40
27.0
 40
27.0
 40
27.0
 40
28.0
 40
28.0
 40
28.0
 40
29.0
 40
29.0
 40
29.0
 40
30.0
 40
30.0
 40
30.0
 40
31.0
 40
31.0
 40
31.0
 40
32.0
 40
32.0
 40
32.0
 40
33.0
 40
33.0
 40
33.0
 40
34.0
 40
34.0
 40
34.0
 40
35.0
 40
35.0
 40
35.0
 40
36.0
 40
36.0
 40
36.0
 40
37.0
 40
37.0
 40
37.0
 40
38.0
 40
38.0
 40
38.0
 40
39.0
 40
39.0
 40
39.0
 40
40.0
 40
40.0
 40
40.0
 40
41.0
 40
41.0
 40
41.0
 40
41.0
 10
194.3417551190578
 20
-61.45389317989478
 30
0.0
 10
194.3417551190578
 20
-61.45389317989478
 30
0.0
 10
194.3417551190578
 20
-69.5889478721427
 30
0.0
 10
194.3417551190578
 20
-69.5889478721427
 30
0.0
 10
194.3417551190578
 20
-69.65948620220318
 30
0.0
 10
194.3417551190578
 20
-69.72651484123809
 30
0.0
 10
194.3382238961854
 20
-69.79707470314567
 30
0.0
 10
194.2676640342781
 20
-71.15528206635832
 30
0.0
 10
193.5233080909964
 20
-72.33707900887971
 30
0.0
 10
192.4332152839229
 20
-73.01440631312661
 30
0.0
 10
192.2568263950781
 20
-73.12023534006413
 30
0.0
 10
192.0733965923354
 20
-73.21549223023129
 30
0.0
 10
191.8828828120011
 20
-73.29662422890893
 30
0.0
 10
191.4207447845016
 20
-73.48360678637086
 30
0.0
 10
190.9127439233547
 20
-73.5894358133087
 30
0.0
 10
190.380046033948
 20
-73.5894358133087
 30
0.0
 10
190.380046033948
 20
-73.5894358133087
 30
0.0
 10
184.2875884549047
 20
-73.5894358133087
 30
0.0
 10
184.2875884549047
 20
-73.5894358133087
 30
0.0
 10
184.2875884549047
 20
-73.5894358133087
 30
0.0
 10
184.2875884549047
 20
-63.59172565141978
 30
0.0
 10
184.2875884549047
 20
-63.59172565141978
 30
0.0
 10
184.2875884549047
 20
-63.59172565141978
 30
0.0
 10
182.2908541753474
 20
-63.59172565141978
 30
0.0
 10
182.2908541753474
 20
-63.59172565141978
 30
0.0
 10
182.2908541753474
 20
-63.59172565141978
 30
0.0
 10
182.2908541753474
 20
-63.5881944285474
 30
0.0
 10
182.2908541753474
 20
-63.5881944285474
 30
0.0
 10
182.2908541753474
 20
-63.5881944285474
 30
0.0
 10
178.2868350113094
 20
-63.5881944285474
 30
0.0
 10
178.2868350113094
 20
-63.5881944285474
 30
0.0
 10
178.2868350113094
 20
-63.5881944285474
 30
0.0
 10
178.2868350113094
 20
-73.5894358133087
 30
0.0
 10
178.2868350113094
 20
-73.5894358133087
 30
0.0
 10
178.2868350113094
 20
-73.5894358133087
 30
0.0
 10
128.213556384776
 20
-73.5894358133087
 30
0.0
 10
128.213556384776
 20
-73.5894358133087
 30
0.0
 10
128.213556384776
 20
-73.5894358133087
 30
0.0
 10
128.213556384776
 20
-73.61413284156826
 30
0.0
 10
128.213556384776
 20
-73.61413284156826
 30
0.0
 10
128.2770538009385
 20
-74.8065234527068
 30
0.0
 10
128.3088132749432
 20
-76.01654864636045
 30
0.0
 10
128.3088132749432
 20
-77.24069873150363
 30
0.0
 10
128.3088132749432
 20
-97.32433503155032
 30
0.0
 10
119.8174495821333
 20
-113.6050165528162
 30
0.0
 10
109.3399452783833
 20
-113.6050165528162
 30
0.0
 10
98.86597219750573
 20
-113.6050165528162
 30
0.0
 10
90.37460850469584
 20
-97.32433503155032
 30
0.0
 10
90.37460850469584
 20
-77.24069873150363
 30
0.0
 10
90.37460850469584
 20
-76.01654864636045
 30
0.0
 10
90.4063679787005
 20
-74.8065234527068
 30
0.0
 10
90.469865394863
 20
-73.61413284156826
 30
0.0
 10
90.469865394863
 20
-73.61413284156826
 30
0.0
 10
90.469865394863
 20
-73.5894358133087
 30
0.0
 10
90.469865394863
 20
-73.5894358133087
 30
0.0
 10
90.469865394863
 20
-73.5894358133087
 30
0.0
 10
40.47065632126255
 20
-73.5894358133087
 30
0.0
 10
40.47065632126255
 20
-73.5894358133087
 30
0.0
 10
40.47065632126255
 20
-73.5894358133087
 30
0.0
 10
40.47065632126255
 20
-63.5881944285474
 30
0.0
 10
40.47065632126255
 20
-63.5881944285474
 30
0.0
 10
40.47065632126255
 20
-63.5881944285474
 30
0.0
 10
34.46992440951403
 20
-63.5881944285474
 30
0.0
 10
34.46992440951403
 20
-63.5881944285474
 30
0.0
 10
34.46992440951403
 20
-63.5881944285474
 30
0.0
 10
34.46992440951403
 20
-73.5894358133087
 30
0.0
 10
34.46992440951403
 20
-73.5894358133087
 30
0.0
 10
34.46992440951403
 20
-73.5894358133087
 30
0.0
 10
28.3033542138443
 20
-73.5894358133087
 30
0.0
 10
28.3033542138443
 20
-73.5894358133087
 30
0.0
 10
27.77065632443755
 20
-73.5894358133087
 30
0.0
 10
27.26267699513746
 20
-73.48360678637086
 30
0.0
 10
26.80051743579119
 20
-73.29662422890893
 30
0.0
 10
26.61002518730366
 20
-73.21549223023129
 30
0.0
 10
26.4265738527141
 20
-73.12023534006413
 30
0.0
 10
26.25018496386931
 20
-73.01440631312661
 30
0.0
 10
25.1601136886427
 20
-72.33707900887971
 30
0.0
 10
24.41575774536091
 20
-71.15528206635832
 30
0.0
 10
24.34519788345363
 20
-69.79707470314567
 30
0.0
 10
24.34166666058125
 20
-69.72651484123809
 30
0.0
 10
24.34166666058125
 20
-69.65948620220318
 30
0.0
 10
24.34166666058125
 20
-69.5889478721427
 30
0.0
 10
24.34166666058125
 20
-69.5889478721427
 30
0.0
 10
24.34166666058125
 20
-61.57382556647504
 30
0.0
 10
24.34166666058125
 20
-61.57382556647504
 30
0.0
 10
24.34166666058125
 20
-55.4707743188146
 30
0.0
 10
25.33297135461511
 20
-49.59701570754464
 30
0.0
 10
27.1674201049703
 20
-44.10779434796828
 30
0.0
 10
34.46992440951403
 20
-22.22853121731613
 30
0.0
 10
55.1215277639974
 20
-6.4593602482224
 30
0.0
 10
79.45613197883388
 20
-6.4593602482224
 30
0.0
 10
79.45613197883388
 20
-6.4593602482224
 30
0.0
 10
82.08433072899064
 20
-6.4593602482224
 30
0.0
 10
82.08433072899064
 20
-6.4593602482224
 30
0.0
 10
82.08433072899064
 20
-6.4593602482224
 30
0.0
 10
82.08433072899064
 20
-16.46060163298338
 30
0.0
 10
82.08433072899064
 20
-16.46060163298338
 30
0.0
 10
82.08433072899064
 20
-16.46060163298338
 30
0.0
 10
88.08508417258594
 20
-16.46060163298338
 30
0.0
 10
88.08508417258594
 20
-16.46060163298338
 30
0.0
 10
88.08508417258594
 20
-16.46060163298338
 30
0.0
 10
88.08508417258594
 20
-6.4593602482224
 30
0.0
 10
88.08508417258594
 20
-6.4593602482224
 30
0.0
 10
88.08508417258594
 20
-6.4593602482224
 30
0.0
 10
130.5983376070531
 20
-6.4593602482224
 30
0.0
 10
130.5983376070531
 20
-6.4593602482224
 30
0.0
 10
130.5983376070531
 20
-6.4593602482224
 30
0.0
 10
130.5983376070531
 20
-16.46060163298338
 30
0.0
 10
130.5983376070531
 20
-16.46060163298338
 30
0.0
 10
130.5983376070531
 20
-16.46060163298338
 30
0.0
 10
136.5990910506484
 20
-16.46060163298338
 30
0.0
 10
136.5990910506484
 20
-16.46060163298338
 30
0.0
 10
136.5990910506484
 20
-16.46060163298338
 30
0.0
 10
136.5990910506484
 20
-6.4593602482224
 30
0.0
 10
136.5990910506484
 20
-6.4593602482224
 30
0.0
 10
136.5990910506484
 20
-6.4593602482224
 30
0.0
 10
139.3472221873854
 20
-6.4593602482224
 30
0.0
 10
139.3472221873854
 20
-6.4593602482224
 30
0.0
 10
165.812617959849
 20
-6.4593602482224
 30
0.0
 10
187.9141328129933
 20
-25.15658246577032
 30
0.0
 10
193.1599366446896
 20
-50.06268495791619
 30
0.0
 10
193.9360520619761
 20
-53.73862337252487
 30
0.0
 10
194.3417551190578
 20
-57.5486405970498
 30
0.0
 10
194.3417551190578
 20
-61.45389317989478
 30
0.0
  0
SPLINE
  5
42
330
1F
100
AcDbEntity
  8
LAYER_1
 62
     1
100
AcDbSpline
210
0.0
220
0.0
230
1.0
 70
    11
 71
     3
 72
    17
 73
    13
 74
     0
 42
0.0000000001
 43
0.0000000001
 12
1.0
 22
0.0
 32
0.0
 13
1.0
 23
0.0
 33
0.0
 40
0.0
 40
0.0
 40
0.0
 40
0.0
 40
1.0
 40
1.0
 40
1.0
 40
2.0
 40
2.0
 40
2.0
 40
3.0
 40
3.0
 40
3.0
 40
4.0
 40
4.0
 40
4.0
 40
4.0
 10
78.3166666470875
 20
-63.58945187454344
 30
0.0
 10
78.3166666470875
 20
-65.16346341107926
 30
0.0
 10
77.04067818433631
 20
-66.43945187383109
 30
0.0
 10
75.46666664779985
 20
-66.43945187383109
 30
0.0
 10
73.89265511126371
 20
-66.43945187383109
 30
0.0
 10
72.61666664851252
 20
-65.16346341107926
 30
0.0
 10
72.61666664851252
 20
-63.58945187454344
 30
0.0
 10
72.61666664851252
 20
-62.01544033800761
 30
0.0
 10
73.89265511126371
 20
-60.73945187525578
 30
0.0
 10
75.46666664779985
 20
-60.73945187525578
 30
0.0
 10
77.04067818433631
 20
-60.73945187525578
 30
0.0
 10
78.3166666470875
 20
-62.01544033800761
 30
0.0
 10
78.3166666470875
 20
-63.58945187454344
 30
0.0
  0
SPLINE
  5
43
330
1F
100
AcDbEntity
  8
LAYER_1
 62
     1
100
AcDbSpline
210
0.0
220
0.0
230
1.0
 70
    11
 71
     3
 72
    17
 73
    13
 74
     0
 42
0.0000000001
 43
0.0000000001
 12
1.0
 22
0.0
 32
0.0
 13
1.0
 23
0.0
 33
0.0
 40
0.0
 40
0.0
 40
0.0
 40
0.0
 40
1.0
 40
1.0
 40
1.0
 40
2.0
 40
2.0
 40
2.0
 40
3.0
 40
3.0
 40
3.0
 40
4.0
 40
4.0
 40
4.0
 40
4.0
 10
146.0666666301502
 20
-63.58944384517576
 30
0.0
 10
146.0666666301502
 20
-65.16345538171159
 30
0.0
 10
144.7906781673996
 20
-66.43944384446341
 30
0.0
 10
143.2166666308635
 20
-66.43944384446341
 30
0.0
 10
141.642655094326
 20
-66.43944384446341
 30
0.0
 10
140.3666666315755
 20
-65.16345538171159
 30
0.0
 10
140.3666666315755
 20
-63.58944384517576
 30
0.0
 10
140.3666666315755
 20
-62.01543230863993
 30
0.0
 10
141.642655094326
 20
-60.73944384588842
 30
0.0
 10
143.2166666308635
 20
-60.73944384588842
 30
0.0
 10
144.7906781673996
 20
-60.73944384588842
 30
0.0
 10
146.0666666301502
 20
-62.01543230863993
 30
0.0
 10
146.0666666301502
 20
-63.58944384517576
 30
0.0
  0
SPLINE
  5
44
330
1F
100
AcDbEntity
  8
LAYER_1
 62
     1
100
AcDbSpline
210
0.0
220
0.0
230
1.0
 70
    11
 71
     3
 72
    29
 73
    25
 74
     0
 42
0.0000000001
 43
0.0000000001
 12
1.0
 22
0.0
 32
0.0
 13
1.0
 23
0.0
 33
0.0
 40
0.0
 40
0.0
 40
0.0
 40
0.0
 40
1.0
 40
1.0
 40
1.0
 40
2.0
 40
2.0
 40
2.0
 40
3.0
 40
3.0
 40
3.0
 40
4.0
 40
4.0
 40
4.0
 40
5.0
 40
5.0
 40
5.0
 40
6.0
 40
6.0
 40
6.0
 40
7.0
 40
7.0
 40
7.0
 40
8.0
 40
8.0
 40
8.0
 40
8.0
 10
111.4903921802553
 20
-101.8904517747744
 30
0.0
 10
111.4903921802553
 20
-101.8904517747744
 30
0.0
 10
107.1929410984071
 20
-101.8904517747744
 30
0.0
 10
107.1929410984071
 20
-101.8904517747744
 30
0.0
 10
104.8646066065496
 20
-101.8904517747744
 30
0.0
 10
102.959605658666
 20
-99.98545082689088
 30
0.0
 10
102.959605658666
 20
-97.6571163350334
 30
0.0
 10
102.959605658666
 20
-97.6571163350334
 30
0.0
 10
102.959605658666
 20
-18.12378723651562
 30
0.0
 10
102.959605658666
 20
-18.12378723651562
 30
0.0
 10
102.959605658666
 20
-15.79545274465814
 30
0.0
 10
104.8646066065496
 20
-13.89045179677456
 30
0.0
 10
107.1929410984071
 20
-13.89045179677456
 30
0.0
 10
107.1929410984071
 20
-13.89045179677456
 30
0.0
 10
111.4903921802553
 20
-13.89045179677456
 30
0.0
 10
111.4903921802553
 20
-13.89045179677456
 30
0.0
 10
113.8187266721127
 20
-13.89045179677456
 30
0.0
 10
115.7237276199963
 20
-15.79545274465814
 30
0.0
 10
115.7237276199963
 20
-18.12378723651562
 30
0.0
 10
115.7237276199963
 20
-18.12378723651562
 30
0.0
 10
115.7237276199963
 20
-97.6571163350334
 30
0.0
 10
115.7237276199963
 20
-97.6571163350334
 30
0.0
 10
115.7237276199963
 20
-99.98545082689088
 30
0.0
 10
113.8187266721127
 20
-101.8904517747744
 30
0.0
 10
111.4903921802553
 20
-101.8904517747744
 30
0.0
  0
SPLINE
  5
45
330
1F
100
AcDbEntity
  8
LAYER_1
 62
     1
100
AcDbSpline
210
0.0
220
0.0
230
1.0
 70
    11
 71
     3
 72
    29
 73
    25
 74
     0
 42
0.0000000001
 43
0.0000000001
 12
1.0
 22
0.0
 32
0.0
 13
1.0
 23
0.0
 33
0.0
 40
0.0
 40
0.0
 40
0.0
 40
0.0
 40
1.0
 40
1.0
 40
1.0
 40
2.0
 40
2.0
 40
2.0
 40
3.0
 40
3.0
 40
3.0
 40
4.0
 40
4.0
 40
4.0
 40
5.0
 40
5.0
 40
5.0
 40
6.0
 40
6.0
 40
6.0
 40
7.0
 40
7.0
 40
7.0
 40
8.0
 40
8.0
 40
8.0
 40
8.0
 10
169.2303338106612
 20
-52.38945187656984
 30
0.0
 10
169.2303338106612
 20
-52.38945187656984
 30
0.0
 10
169.2303238084777
 20
-52.38945187656984
 30
0.0
 10
169.2303238084777
 20
-52.38945187656984
 30
0.0
 10
166.4803265596584
 20
-52.38945187696866
 30
0.0
 10
164.230328810313
 20
-50.13945412826074
 30
0.0
 10
164.2303288099331
 20
-47.38945687944116
 30
0.0
 10
164.2303288099331
 20
-47.38945687944116
 30
0.0
 10
164.2303288078604
 20
-32.38944688519113
 30
0.0
 10
164.2303288078604
 20
-32.38944688519113
 30
0.0
 10
164.2303288074805
 20
-29.63944963409961
 30
0.0
 10
166.4803265580625
 20
-27.38945188327665
 30
0.0
 10
169.230323809154
 20
-27.38945188336231
 30
0.0
 10
169.230323809154
 20
-27.38945188336231
 30
0.0
 10
169.2303338091538
 20
-27.38945188336231
 30
0.0
 10
169.2303338091538
 20
-27.38945188336231
 30
0.0
 10
171.9803310598667
 20
-27.38945188344798
 30
0.0
 10
174.2303288101459
 20
-29.63944963410154
 30
0.0
 10
174.2303288097743
 20
-32.38944688481413
 30
0.0
 10
174.2303288097743
 20
-32.38944688481413
 30
0.0
 10
174.2303288077459
 20
-47.38945687943602
 30
0.0
 10
174.2303288077459
 20
-47.38945687943602
 30
0.0
 10
174.2303288073743
 20
-50.13945412746086
 30
0.0
 10
171.980331058686
 20
-52.38945187617103
 30
0.0
 10
169.2303338106612
 20
-52.38945187656984
 30
0.0
  0
SPLINE
  5
46
330
1F
100
AcDbEntity
  8
LAYER_1
 62
     7
100
AcDbSpline
210
0.0
220
0.0
230
1.0
 70
    11
 71
     3
 72
    56
 73
    52
 74
     0
 42
0.0000000001
 43
0.0000000001
 12
1.0
 22
0.0
 32
0.0
 13
1.0
 23
0.0
 33
0.0
 40
0.0
 40
0.0
 40
0.0
 40
0.0
 40
1.0
 40
1.0
 40
1.0
 40
2.0
 40
2.0
 40
2.0
 40
3.0
 40
3.0
 40
3.0
 40
4.0
 40
4.0
 40
4.0
 40
5.0
 40
5.0
 40
5.0
 40
6.0
 40
6.0
 40
6.0
 40
7.0
 40
7.0
 40
7.0
 40
8.0
 40
8.0
 40
8.0
 40
9.0
 40
9.0
 40
9.0
 40
10.0
 40
10.0
 40
10.0
 40
11.0
 40
11.0
 40
11.0
 40
12.0
 40
12.0
 40
12.0
 40
13.0
 40
13.0
 40
13.0
 40
14.0
 40
14.0
 40
14.0
 40
15.0
 40
15.0
 40
15.0
 40
16.0
 40
16.0
 40
16.0
 40
17.0
 40
17.0
 40
17.0
 40
17.0
 10
201.1289331772507
 20
-51.45616148615972
 30
0.0
 10
201.1289331772507
 20
-51.45616148615972
 30
0.0
 10
197.3836901977554
 20
-51.45616148615972
 30
0.0
 10
197.3836901977554
 20
-51.45616148615972
 30
0.0
 10
192.8608973876819
 20
-51.45616148615972
 30
0.0
 10
194.48910251548
 20
-49.04515668289527
 30
0.0
 10
192.9332620600287
 20
-44.52236466123495
 30
0.0
 10
191.0552803675718
 20
-39.06311555525574
 30
0.0
 10
192.2080628267383
 20
-41.9517233806093
 30
0.0
 10
189.8200286393012
 20
-36.48819061844235
 30
0.0
 10
189.389035571243
 20
-35.50213072030961
 30
0.0
 10
188.1311383816686
 20
-33.48055613351193
 30
0.0
 10
187.4539317882013
 20
-32.64421865546609
 30
0.0
 10
187.4539317882013
 20
-32.64421865546609
 30
0.0
 10
186.9393160682653
 20
-31.82147293040072
 30
0.0
 10
186.9393160682653
 20
-31.82147293040072
 30
0.0
 10
185.7687990823094
 20
-29.95010015843944
 30
0.0
 10
185.1481041542819
 20
-27.78728859285784
 30
0.0
 10
185.1481041542819
 20
-25.57999475966574
 30
0.0
 10
185.1481041542819
 20
-25.57999475966574
 30
0.0
 10
185.1481041542819
 20
-23.97079945107123
 30
0.0
 10
185.1481041542819
 20
-23.97079945107123
 30
0.0
 10
185.1481041542819
 20
-23.97079945107123
 30
0.0
 10
185.1481041542819
 20
-10.4774827719032
 30
0.0
 10
185.1481041542819
 20
-10.4774827719032
 30
0.0
 10
185.1481041542819
 20
-8.258334979122653
 30
0.0
 10
186.9470788851822
 20
-6.4593602482224
 30
0.0
 10
189.1662266779627
 20
-6.4593602482224
 30
0.0
 10
189.1662266779627
 20
-6.4593602482224
 30
0.0
 10
201.1289331772507
 20
-6.4593602482224
 30
0.0
 10
201.1289331772507
 20
-6.4593602482224
 30
0.0
 10
203.3480928617418
 20
-6.4593602482224
 30
0.0
 10
205.1470772327783
 20
-8.258344619258876
 30
0.0
 10
205.1470772327783
 20
-10.47750430374998
 30
0.0
 10
205.1470772327783
 20
-10.47750430374998
 30
0.0
 10
205.1470772327783
 20
-15.53279435511203
 30
0.0
 10
205.1470772327783
 20
-15.53279435511203
 30
0.0
 10
205.1470772327783
 20
-15.53279435511203
 30
0.0
 10
195.1493455390429
 20
-15.53279435511203
 30
0.0
 10
195.1493455390429
 20
-15.53279435511203
 30
0.0
 10
195.1493455390429
 20
-15.53279435511203
 30
0.0
 10
195.1493455390429
 20
-21.53001657583495
 30
0.0
 10
195.1493455390429
 20
-21.53001657583495
 30
0.0
 10
195.1493455390429
 20
-21.53001657583495
 30
0.0
 10
205.1470772327783
 20
-21.53001657583495
 30
0.0
 10
205.1470772327783
 20
-21.53001657583495
 30
0.0
 10
205.1470772327783
 20
-21.53001657583495
 30
0.0
 10
205.1470772327783
 20
-47.43801743063182
 30
0.0
 10
205.1470772327783
 20
-47.43801743063182
 30
0.0
 10
205.1470772327783
 20
-49.65717711512293
 30
0.0
 10
203.3480928617418
 20
-51.45616148615972
 30
0.0
 10
201.1289331772507
 20
-51.45616148615972
 30
0.0
  0
SPLINE
  5
47
330
1F
100
AcDbEntity
  8
LAYER_1
 62
     7
100
AcDbSpline
210
0.0
220
0.0
230
1.0
 70
    11
 71
     3
 72
    56
 73
    52
 74
     0
 42
0.0000000001
 43
0.0000000001
 12
1.0
 22
0.0
 32
0.0
 13
1.0
 23
0.0
 33
0.0
 40
0.0
 40
0.0
 40
0.0
 40
0.0
 40
1.0
 40
1.0
 40
1.0
 40
2.0
 40
2.0
 40
2.0
 40
3.0
 40
3.0
 40
3.0
 40
4.0
 40
4.0
 40
4.0
 40
5.0
 40
5.0
 40
5.0
 40
6.0
 40
6.0
 40
6.0
 40
7.0
 40
7.0
 40
7.0
 40
8.0
 40
8.0
 40
8.0
 40
9.0
 40
9.0
 40
9.0
 40
10.0
 40
10.0
 40
10.0
 40
11.0
 40
11.0
 40
11.0
 40
12.0
 40
12.0
 40
12.0
 40
13.0
 40
13.0
 40
13.0
 40
14.0
 40
14.0
 40
14.0
 40
15.0
 40
15.0
 40
15.0
 40
16.0
 40
16.0
 40
16.0
 40
17.0
 40
17.0
 40
17.0
 40
17.0
 10
17.02275840137678
 20
-51.45616148615972
 30
0.0
 10
17.02275840137678
 20
-51.45616148615972
 30
0.0
 10
20.76800138087202
 20
-51.45616148615972
 30
0.0
 10
20.76800138087202
 20
-51.45616148615972
 30
0.0
 10
25.2907941909456
 20
-51.45616148615972
 30
0.0
 10
23.66258906314748
 20
-49.04515668289527
 30
0.0
 10
25.21842951859879
 20
-44.52236466123495
 30
0.0
 10
27.09641121105565
 20
-39.06311555525574
 30
0.0
 10
25.9436287518892
 20
-41.9517233806093
 30
0.0
 10
28.33166293932628
 20
-36.48819061844235
 30
0.0
 10
28.76265600738445
 20
-35.50213072030961
 30
0.0
 10
30.02055319695885
 20
-33.48055613351193
 30
0.0
 10
30.6977597904262
 20
-32.64421865546609
 30
0.0
 10
30.6977597904262
 20
-32.64421865546609
 30
0.0
 10
31.21237551036215
 20
-31.82147293040072
 30
0.0
 10
31.21237551036215
 20
-31.82147293040072
 30
0.0
 10
32.3828924963181
 20
-29.95010015843944
 30
0.0
 10
33.00358742434555
 20
-27.78728859285784
 30
0.0
 10
33.00358742434555
 20
-25.57999475966574
 30
0.0
 10
33.00358742434555
 20
-25.57999475966574
 30
0.0
 10
33.00358742434555
 20
-23.97079945107123
 30
0.0
 10
33.00358742434555
 20
-23.97079945107123
 30
0.0
 10
33.00358742434555
 20
-23.97079945107123
 30
0.0
 10
33.00358742434555
 20
-10.4774827719032
 30
0.0
 10
33.00358742434555
 20
-10.4774827719032
 30
0.0
 10
33.00358742434555
 20
-8.258334979122653
 30
0.0
 10
31.2046126934453
 20
-6.4593602482224
 30
0.0
 10
28.98546490066475
 20
-6.4593602482224
 30
0.0
 10
28.98546490066475
 20
-6.4593602482224
 30
0.0
 10
17.02275840137678
 20
-6.4593602482224
 30
0.0
 10
17.02275840137678
 20
-6.4593602482224
 30
0.0
 10
14.80359871688568
 20
-6.4593602482224
 30
0.0
 10
13.0046143458492
 20
-8.258344619258876
 30
0.0
 10
13.0046143458492
 20
-10.47750430374998
 30
0.0
 10
13.0046143458492
 20
-10.47750430374998
 30
0.0
 10
13.0046143458492
 20
-15.53279435511203
 30
0.0
 10
13.0046143458492
 20
-15.53279435511203
 30
0.0
 10
13.0046143458492
 20
-15.53279435511203
 30
0.0
 10
23.00234603958458
 20
-15.53279435511203
 30
0.0
 10
23.00234603958458
 20
-15.53279435511203
 30
0.0
 10
23.00234603958458
 20
-15.53279435511203
 30
0.0
 10
23.00234603958458
 20
-21.53001657583495
 30
0.0
 10
23.00234603958458
 20
-21.53001657583495
 30
0.0
 10
23.00234603958458
 20
-21.53001657583495
 30
0.0
 10
13.0046143458492
 20
-21.53001657583495
 30
0.0
 10
13.0046143458492
 20
-21.53001657583495
 30
0.0
 10
13.0046143458492
 20
-21.53001657583495
 30
0.0
 10
13.0046143458492
 20
-47.43801743063182
 30
0.0
 10
13.0046143458492
 20
-47.43801743063182
 30
0.0
 10
13.0046143458492
 20
-49.65717711512293
 30
0.0
 10
14.80359871688568
 20
-51.45616148615972
 30
0.0
 10
17.02275840137678
 20
-51.45616148615972
 30
0.0
  0
SPLINE
  5
48
330
1F
100
AcDbEntity
  8
LAYER_1
 62
     1
100
AcDbSpline
210
0.0
220
0.0
230
1.0
 70
    11
 71
     3
 72
    17
 73
    13
 74
     0
 42
0.0000000001
 43
0.0000000001
 12
1.0
 22
0.0
 32
0.0
 13
1.0
 23
0.0
 33
0.0
 40
0.0
 40
0.0
 40
0.0
 40
0.0
 40
1.0
 40
1.0
 40
1.0
 40
2.0
 40
2.0
 40
2.0
 40
3.0
 40
3.0
 40
3.0
 40
4.0
 40
4.0
 40
4.0
 40
4.0
 10
20.4721357109622
 20
-57.89045178577451
 30
0.0
 10
20.4721357109622
 20
-59.43684908482729
 30
0.0
 10
19.21853301071529
 20
-60.69045178507452
 30
0.0
 10
17.67213571166155
 20
-60.69045178507452
 30
0.0
 10
16.12573841260845
 20
-60.69045178507452
 30
0.0
 10
14.87213571236219
 20
-59.43684908482729
 30
0.0
 10
14.87213571236219
 20
-57.89045178577451
 30
0.0
 10
14.87213571236219
 20
-56.34405448672172
 30
0.0
 10
16.12573841260845
 20
-55.0904517864745
 30
0.0
 10
17.67213571166155
 20
-55.0904517864745
 30
0.0
 10
19.21853301071529
 20
-55.0904517864745
 30
0.0
 10
20.4721357109622
 20
-56.34405448672172
 30
0.0
 10
20.4721357109622
 20
-57.89045178577451
 30
0.0
  0
SPLINE
  5
49
330
1F
100
AcDbEntity
  8
LAYER_1
 62
     7
100
AcDbSpline
210
0.0
220
0.0
230
1.0
 70
    11
 71
     3
 72
    17
 73
    13
 74
     0
 42
0.0000000001
 43
0.0000000001
 12
1.0
 22
0.0
 32
0.0
 13
1.0
 23
0.0
 33
0.0
 40
0.0
 40
0.0
 40
0.0
 40
0.0
 40
1.0
 40
1.0
 40
1.0
 40
2.0
 40
2.0
 40
2.0
 40
3.0
 40
3.0
 40
3.0
 40
4.0
 40
4.0
 40
4.0
 40
4.0
 10
22.33965707747647
 20
-57.89045178577451
 30
0.0
 10
22.33965707747647
 20
-60.46825265547808
 30
0.0
 10
20.24993658136801
 20
-62.55797315158814
 30
0.0
 10
17.67213571166155
 20
-62.55797315158814
 30
0.0
 10
15.09433484195766
 20
-62.55797315158814
 30
0.0
 10
13.0046143458492
 20
-60.46825265547808
 30
0.0
 10
13.0046143458492
 20
-57.89045178577451
 30
0.0
 10
13.0046143458492
 20
-55.31265091607094
 30
0.0
 10
15.09433484195766
 20
-53.22293041996087
 30
0.0
 10
17.67213571166155
 20
-53.22293041996087
 30
0.0
 10
20.24993658136801
 20
-53.22293041996087
 30
0.0
 10
22.33965707747647
 20
-55.31265091607094
 30
0.0
 10
22.33965707747647
 20
-57.89045178577451
 30
0.0
  0
SPLINE
  5
4A
330
1F
100
AcDbEntity
  8
LAYER_1
 62
     1
100
AcDbSpline
210
0.0
220
0.0
230
1.0
 70
    11
 71
     3
 72
    17
 73
    13
 74
     0
 42
0.0000000001
 43
0.0000000001
 12
1.0
 22
0.0
 32
0.0
 13
1.0
 23
0.0
 33
0.0
 40
0.0
 40
0.0
 40
0.0
 40
0.0
 40
1.0
 40
1.0
 40
1.0
 40
2.0
 40
2.0
 40
2.0
 40
3.0
 40
3.0
 40
3.0
 40
4.0
 40
4.0
 40
4.0
 40
4.0
 10
20.47213571096156
 20
-69.25099017970174
 30
0.0
 10
20.47213571096156
 20
-70.79738747875453
 30
0.0
 10
19.21853301071465
 20
-72.05099017900174
 30
0.0
 10
17.67213571166091
 20
-72.05099017900174
 30
0.0
 10
16.12573841260781
 20
-72.05099017900174
 30
0.0
 10
14.87213571236155
 20
-70.79738747875453
 30
0.0
 10
14.87213571236155
 20
-69.25099017970174
 30
0.0
 10
14.87213571236155
 20
-67.70459288064896
 30
0.0
 10
16.12573841260781
 20
-66.45099018040175
 30
0.0
 10
17.67213571166091
 20
-66.45099018040175
 30
0.0
 10
19.21853301071465
 20
-66.45099018040175
 30
0.0
 10
20.47213571096156
 20
-67.70459288064896
 30
0.0
 10
20.47213571096156
 20
-69.25099017970174
 30
0.0
  0
SPLINE
  5
4B
330
1F
100
AcDbEntity
  8
LAYER_1
 62
     7
100
AcDbSpline
210
0.0
220
0.0
230
1.0
 70
    11
 71
     3
 72
    17
 73
    13
 74
     0
 42
0.0000000001
 43
0.0000000001
 12
1.0
 22
0.0
 32
0.0
 13
1.0
 23
0.0
 33
0.0
 40
0.0
 40
0.0
 40
0.0
 40
0.0
 40
1.0
 40
1.0
 40
1.0
 40
2.0
 40
2.0
 40
2.0
 40
3.0
 40
3.0
 40
3.0
 40
4.0
 40
4.0
 40
4.0
 40
4.0
 10
22.33965707747583
 20
-69.25099017970174
 30
0.0
 10
22.33965707747583
 20
-71.82879104940564
 30
0.0
 10
20.24993658136736
 20
-73.91851154551537
 30
0.0
 10
17.67213571166091
 20
-73.91851154551537
 30
0.0
 10
15.09433484195702
 20
-73.91851154551537
 30
0.0
 10
13.00461434584856
 20
-71.82879104940564
 30
0.0
 10
13.00461434584856
 20
-69.25099017970174
 30
0.0
 10
13.00461434584856
 20
-66.67318930999818
 30
0.0
 10
15.09433484195702
 20
-64.5834688138881
 30
0.0
 10
17.67213571166091
 20
-64.5834688138881
 30
0.0
 10
20.24993658136736
 20
-64.5834688138881
 30
0.0
 10
22.33965707747583
 20
-66.67318930999818
 30
0.0
 10
22.33965707747583
 20
-69.25099017970174
 30
0.0
  0
POLYLINE
  5
4C
330
1F
100
AcDbEntity
  8
LAYER_1
 62
     1
100
AcDb2dPolyline
 66
     1
 10
0.0
 20
0.0
 30
0.0
  0
VERTEX
  5
4D
330
4C
100
AcDbEntity
  8
LAYER_1
 62
     1
100
AcDbVertex
100
AcDb2dVertex
 10
55.82712974798557
 20
-88.0493023618383
 30
0.0
  0
VERTEX
  5
4E
330
4C
100
AcDbEntity
  8
LAYER_1
 62
     1
100
AcDbVertex
100
AcDb2dVertex
 10
55.82712974798557
 20
-83.05395697191896
 30
0.0
  0
VERTEX
  5
4F
330
4C
100
AcDbEntity
  8
LAYER_1
 62
     1
100
AcDbVertex
100
AcDb2dVertex
 10
56.82196566489181
 20
-83.05395697191896
 30
0.0
  0
VERTEX
  5
50
330
4C
100
AcDbEntity
  8
LAYER_1
 62
     1
100
AcDbVertex
100
AcDb2dVertex
 10
56.82196566489181
 20
-79.30041778150535
 30
0.0
  0
VERTEX
  5
51
330
4C
100
AcDbEntity
  8
LAYER_1
 62
     1
100
AcDbVertex
100
AcDb2dVertex
 10
79.8442468820095
 20
-79.30041778150535
 30
0.0
  0
VERTEX
  5
52
330
4C
100
AcDbEntity
  8
LAYER_1
 62
     1
100
AcDbVertex
100
AcDb2dVertex
 10
79.8442468820095
 20
-83.05395697191896
 30
0.0
  0
VERTEX
  5
53
330
4C
100
AcDbEntity
  8
LAYER_1
 62
     1
100
AcDbVertex
100
AcDb2dVertex
 10
80.84259248994134
 20
-83.05395697191896
 30
0.0
  0
VERTEX
  5
54
330
4C
100
AcDbEntity
  8
LAYER_1
 62
     1
100
AcDbVertex
100
AcDb2dVertex
 10
80.84259248994134
 20
-88.0493023618383
 30
0.0
  0
VERTEX
  5
55
330
4C
100
AcDbEntity
  8
LAYER_1
 62
     1
100
AcDbVertex
100
AcDb2dVertex
 10
79.8442468820095
 20
-88.0493023618383
 30
0.0
  0
VERTEX
  5
56
330
4C
100
AcDbEntity
  8
LAYER_1
 62
     1
100
AcDbVertex
100
AcDb2dVertex
 10
79.8442468820095
 20
-91.80286308409805
 30
0.0
  0
VERTEX
  5
57
330
4C
100
AcDbEntity
  8
LAYER_1
 62
     1
100
AcDbVertex
100
AcDb2dVertex
 10
56.82196566489181
 20
-91.80286308409805
 30
0.0
  0
VERTEX
  5
58
330
4C
100
AcDbEntity
  8
LAYER_1
 62
     1
100
AcDbVertex
100
AcDb2dVertex
 10
56.82196566489181
 20
-88.0493023618383
 30
0.0
  0
VERTEX
  5
59
330
4C
100
AcDbEntity
  8
LAYER_1
 62
     1
100
AcDbVertex
100
AcDb2dVertex
 10
55.82712974798557
 20
-88.0493023618383
 30
0.0
  0
SEQEND
  5
5A
330
4C
100
AcDbEntity
  8
LAYER_1
 62
     1
  0
SPLINE
  5
5B
330
1F
100
AcDbEntity
  8
LAYER_1
 62
     1
100
AcDbSpline
210
0.0
220
0.0
230
1.0
 70
    11
 71
     3
 72
    17
 73
    13
 74
     0
 42
0.0000000001
 43
0.0000000001
 12
1.0
 22
0.0
 32
0.0
 13
1.0
 23
0.0
 33
0.0
 40
0.0
 40
0.0
 40
0.0
 40
0.0
 40
1.0
 40
1.0
 40
1.0
 40
2.0
 40
2.0
 40
2.0
 40
3.0
 40
3.0
 40
3.0
 40
4.0
 40
4.0
 40
4.0
 40
4.0
 10
82.29759833691327
 20
-86.16245965436072
 30
0.0
 10
81.96622748711673
 20
-86.16245965434659
 30
0.0
 10
81.69759833707559
 20
-85.89383050428108
 30
0.0
 10
81.69759833708972
 20
-85.5624596544839
 30
0.0
 10
81.69759833710383
 20
-85.23108880468607
 30
0.0
 10
81.96622748716935
 20
-84.96245965464686
 30
0.0
 10
82.29759833696589
 20
-84.96245965466099
 30
0.0
 10
82.62896918676243
 20
-84.9624596546764
 30
0.0
 10
82.89759833680355
 20
-85.23108880474062
 30
0.0
 10
82.89759833678944
 20
-85.56245965453716
 30
0.0
 10
82.89759833677532
 20
-85.89383050433499
 30
0.0
 10
82.62896918670981
 20
-86.16245965437612
 30
0.0
 10
82.29759833691327
 20
-86.16245965436072
 30
0.0
  0
SPLINE
  5
5C
330
1F
100
AcDbEntity
  8
LAYER_1
 62
     1
100
AcDbSpline
210
0.0
220
0.0
230
1.0
 70
    11
 71
     3
 72
    17
 73
    13
 74
     0
 42
0.0000000001
 43
0.0000000001
 12
1.0
 22
0.0
 32
0.0
 13
1.0
 23
0.0
 33
0.0
 40
0.0
 40
0.0
 40
0.0
 40
0.0
 40
1.0
 40
1.0
 40
1.0
 40
2.0
 40
2.0
 40
2.0
 40
3.0
 40
3.0
 40
3.0
 40
4.0
 40
4.0
 40
4.0
 40
4.0
 10
54.299265010477
 20
-86.16245965310426
 30
0.0
 10
53.96789416067661
 20
-86.16245965308887
 30
0.0
 10
53.69926501063933
 20
-85.89383050302463
 30
0.0
 10
53.69926501065345
 20
-85.56245965322681
 30
0.0
 10
53.69926501066757
 20
-85.23108880342899
 30
0.0
 10
53.96789416073308
 20
-84.96245965338915
 30
0.0
 10
54.29926501052962
 20
-84.96245965340454
 30
0.0
 10
54.63063586032617
 20
-84.96245965341866
 30
0.0
 10
54.89926501036729
 20
-85.23108880348417
 30
0.0
 10
54.89926501035318
 20
-85.56245965328135
 30
0.0
 10
54.89926501033906
 20
-85.8938305030779
 30
0.0
 10
54.63063586027354
 20
-86.16245965311903
 30
0.0
 10
54.299265010477
 20
-86.16245965310426
 30
0.0
  0
SPLINE
  5
5D
330
1F
100
AcDbEntity
  8
LAYER_1
 62
     7
100
AcDbSpline
210
0.0
220
0.0
230
1.0
 70
    11
 71
     3
 72
    50
 73
    46
 74
     0
 42
0.0000000001
 43
0.0000000001
 12
1.0
 22
0.0
 32
0.0
 13
1.0
 23
0.0
 33
0.0
 40
0.0
 40
0.0
 40
0.0
 40
0.0
 40
1.0
 40
1.0
 40
1.0
 40
2.0
 40
2.0
 40
2.0
 40
3.0
 40
3.0
 40
3.0
 40
4.0
 40
4.0
 40
4.0
 40
5.0
 40
5.0
 40
5.0
 40
6.0
 40
6.0
 40
6.0
 40
7.0
 40
7.0
 40
7.0
 40
8.0
 40
8.0
 40
8.0
 40
9.0
 40
9.0
 40
9.0
 40
10.0
 40
10.0
 40
10.0
 40
11.0
 40
11.0
 40
11.0
 40
12.0
 40
12.0
 40
12.0
 40
13.0
 40
13.0
 40
13.0
 40
14.0
 40
14.0
 40
14.0
 40
15.0
 40
15.0
 40
15.0
 40
15.0
 10
67.81146403391568
 20
-107.8639406358172
 30
0.0
 10
60.29023922975215
 20
-105.2498667771499
 30
0.0
 10
60.72211074703428
 20
-103.5650897607587
 30
0.0
 10
57.1625734961338
 20
-102.1963102607753
 30
0.0
 10
54.44618030155466
 20
-101.1521018191961
 30
0.0
 10
51.2500144969609
 20
-100.7040671513394
 30
0.0
 10
49.82480002655982
 20
-100.5488440678821
 30
0.0
 10
49.34853710757081
 20
-100.4959187884899
 30
0.0
 10
49.06985041466088
 20
-100.4747529831024
 30
0.0
 10
49.06985041466088
 20
-100.4747529831024
 30
0.0
 10
49.06985041466088
 20
-100.4747529831024
 30
0.0
 10
49.06985041466088
 20
-85.54872607033002
 30
0.0
 10
49.06985041466088
 20
-85.54872607033002
 30
0.0
 10
49.06985041466088
 20
-85.54872607033002
 30
0.0
 10
43.06909697106559
 20
-85.54872607033002
 30
0.0
 10
43.06909697106559
 20
-85.54872607033002
 30
0.0
 10
43.06909697106559
 20
-85.54872607033002
 30
0.0
 10
43.06909697106559
 20
-100.4747529831024
 30
0.0
 10
43.06909697106559
 20
-100.4747529831024
 30
0.0
 10
43.06909697106559
 20
-100.4747529831024
 30
0.0
 10
43.06909697106559
 20
-100.4747529831024
 30
0.0
 10
43.06556574819321
 20
-100.4747529831024
 30
0.0
 10
42.92093633335306
 20
-100.4747529831024
 30
0.0
 10
39.40375222507437
 20
-100.4324213723274
 30
0.0
 10
34.62712733477547
 20
-96.52012787558414
 30
0.0
 10
30.08687905845828
 20
-92.7983050954816
 30
0.0
 10
28.05134439099841
 20
-91.40835979011077
 30
0.0
 10
20.61833556310406
 20
-91.19670173623574
 30
0.0
 10
15.57006489379321
 20
-91.05207232139558
 30
0.0
 10
13.3017063670708
 20
-87.07272865377064
 30
0.0
 10
13.05477914816552
 20
-82.95581801705029
 30
0.0
 10
13.33699706394783
 20
-78.81774157494246
 30
0.0
 10
16.78715253319163
 20
-75.55101590844143
 30
0.0
 10
20.99578883720675
 20
-75.55101590844143
 30
0.0
 10
20.99578883720675
 20
-75.55101590844143
 30
0.0
 10
73.47501449140465
 20
-75.55101590844143
 30
0.0
 10
73.47501449140465
 20
-75.55101590844143
 30
0.0
 10
81.02799876957283
 20
-75.55101590844143
 30
0.0
 10
87.3215422657208
 20
-80.94144915497793
 30
0.0
 10
88.71855001683639
 20
-88.08873037606438
 30
0.0
 10
89.40649795787324
 20
-93.77089136425583
 30
0.0
 10
88.63285209431184
 20
-101.3783191477122
 30
0.0
 10
84.88554615544375
 20
-105.1010642509325
 30
0.0
 10
81.95875747767242
 20
-108.0086699805101
 30
0.0
 10
74.68709947599017
 20
-110.2522530809666
 30
0.0
 10
67.81146403391568
 20
-107.8639406358172
 30
0.0
  0
POLYLINE
  5
5E
330
1F
100
AcDbEntity
  8
LAYER_1
 62
     1
100
AcDb2dPolyline
 66
     1
 10
0.0
 20
0.0
 30
0.0
  0
VERTEX
  5
5F
330
5E
100
AcDbEntity
  8
LAYER_1
 62
     1
100
AcDbVertex
100
AcDb2dVertex
 10
162.3747266329582
 20
-87.64156255185078
 30
0.0
  0
VERTEX
  5
60
330
5E
100
AcDbEntity
  8
LAYER_1
 62
     1
100
AcDbVertex
100
AcDb2dVertex
 10
162.3747266329582
 20
-82.6462171619308
 30
0.0
  0
VERTEX
  5
61
330
5E
100
AcDbEntity
  8
LAYER_1
 62
     1
100
AcDbVertex
100
AcDb2dVertex
 10
161.379890716052
 20
-82.6462171619308
 30
0.0
  0
VERTEX
  5
62
330
5E
100
AcDbEntity
  8
LAYER_1
 62
     1
100
AcDbVertex
100
AcDb2dVertex
 10
161.379890716052
 20
-78.89267797151719
 30
0.0
  0
VERTEX
  5
63
330
5E
100
AcDbEntity
  8
LAYER_1
 62
     1
100
AcDbVertex
100
AcDb2dVertex
 10
138.3576094989343
 20
-78.89267797151719
 30
0.0
  0
VERTEX
  5
64
330
5E
100
AcDbEntity
  8
LAYER_1
 62
     1
100
AcDbVertex
100
AcDb2dVertex
 10
138.3576094989343
 20
-82.6462171619308
 30
0.0
  0
VERTEX
  5
65
330
5E
100
AcDbEntity
  8
LAYER_1
 62
     1
100
AcDbVertex
100
AcDb2dVertex
 10
137.3592638910025
 20
-82.6462171619308
 30
0.0
  0
VERTEX
  5
66
330
5E
100
AcDbEntity
  8
LAYER_1
 62
     1
100
AcDbVertex
100
AcDb2dVertex
 10
137.3592638910025
 20
-87.64156255185078
 30
0.0
  0
VERTEX
  5
67
330
5E
100
AcDbEntity
  8
LAYER_1
 62
     1
100
AcDbVertex
100
AcDb2dVertex
 10
138.3576094989343
 20
-87.64156255185078
 30
0.0
  0
VERTEX
  5
68
330
5E
100
AcDbEntity
  8
LAYER_1
 62
     1
100
AcDbVertex
100
AcDb2dVertex
 10
138.3576094989343
 20
-91.39512327410989
 30
0.0
  0
VERTEX
  5
69
330
5E
100
AcDbEntity
  8
LAYER_1
 62
     1
100
AcDbVertex
100
AcDb2dVertex
 10
161.379890716052
 20
-91.39512327410989
 30
0.0
  0
VERTEX
  5
6A
330
5E
100
AcDbEntity
  8
LAYER_1
 62
     1
100
AcDbVertex
100
AcDb2dVertex
 10
161.379890716052
 20
-87.64156255185078
 30
0.0
  0
VERTEX
  5
6B
330
5E
100
AcDbEntity
  8
LAYER_1
 62
     1
100
AcDbVertex
100
AcDb2dVertex
 10
162.3747266329582
 20
-87.64156255185078
 30
0.0
  0
SEQEND
  5
6C
330
5E
100
AcDbEntity
  8
LAYER_1
 62
     1
  0
SPLINE
  5
6D
330
1F
100
AcDbEntity
  8
LAYER_1
 62
     1
100
AcDbSpline
210
0.0
220
0.0
230
1.0
 70
    11
 71
     3
 72
    17
 73
    13
 74
     0
 42
0.0000000001
 43
0.0000000001
 12
1.0
 22
0.0
 32
0.0
 13
1.0
 23
0.0
 33
0.0
 40
0.0
 40
0.0
 40
0.0
 40
0.0
 40
1.0
 40
1.0
 40
1.0
 40
2.0
 40
2.0
 40
2.0
 40
3.0
 40
3.0
 40
3.0
 40
4.0
 40
4.0
 40
4.0
 40
4.0
 10
135.9042580440305
 20
-85.75471984437256
 30
0.0
 10
136.2356288938271
 20
-85.75471984435845
 30
0.0
 10
136.5042580438682
 20
-85.48609069429293
 30
0.0
 10
136.5042580438541
 20
-85.15471984449638
 30
0.0
 10
136.50425804384
 20
-84.82334899469856
 30
0.0
 10
136.2356288937744
 20
-84.55471984465872
 30
0.0
 10
135.9042580439779
 20
-84.55471984467283
 30
0.0
 10
135.5728871941814
 20
-84.55471984468824
 30
0.0
 10
135.3042580441402
 20
-84.82334899475246
 30
0.0
 10
135.3042580441544
 20
-85.154719844549
 30
0.0
 10
135.3042580441685
 20
-85.48609069434683
 30
0.0
 10
135.572887194234
 20
-85.75471984438796
 30
0.0
 10
135.9042580440305
 20
-85.75471984437256
 30
0.0
  0
SPLINE
  5
6E
330
1F
100
AcDbEntity
  8
LAYER_1
 62
     1
100
AcDbSpline
210
0.0
220
0.0
230
1.0
 70
    11
 71
     3
 72
    17
 73
    13
 74
     0
 42
0.0000000001
 43
0.0000000001
 12
1.0
 22
0.0
 32
0.0
 13
1.0
 23
0.0
 33
0.0
 40
0.0
 40
0.0
 40
0.0
 40
0.0
 40
1.0
 40
1.0
 40
1.0
 40
2.0
 40
2.0
 40
2.0
 40
3.0
 40
3.0
 40
3.0
 40
4.0
 40
4.0
 40
4.0
 40
4.0
 10
163.9025913704668
 20
-85.7547198431161
 30
0.0
 10
164.2339622202672
 20
-85.75471984310072
 30
0.0
 10
164.5025913703045
 20
-85.48609069303649
 30
0.0
 10
164.5025913702904
 20
-85.15471984323865
 30
0.0
 10
164.5025913702762
 20
-84.82334899344083
 30
0.0
 10
164.2339622202107
 20
-84.55471984340099
 30
0.0
 10
163.9025913704142
 20
-84.55471984341638
 30
0.0
 10
163.5712205206176
 20
-84.5547198434305
 30
0.0
 10
163.3025913705765
 20
-84.82334899349601
 30
0.0
 10
163.3025913705906
 20
-85.15471984329385
 30
0.0
 10
163.3025913706047
 20
-85.48609069309039
 30
0.0
 10
163.5712205206703
 20
-85.75471984313151
 30
0.0
 10
163.9025913704668
 20
-85.7547198431161
 30
0.0
  0
SPLINE
  5
6F
330
1F
100
AcDbEntity
  8
LAYER_1
 62
     7
100
AcDbSpline
210
0.0
220
0.0
230
1.0
 70
    11
 71
     3
 72
    50
 73
    46
 74
     0
 42
0.0000000001
 43
0.0000000001
 12
1.0
 22
0.0
 32
0.0
 13
1.0
 23
0.0
 33
0.0
 40
0.0
 40
0.0
 40
0.0
 40
0.0
 40
1.0
 40
1.0
 40
1.0
 40
2.0
 40
2.0
 40
2.0
 40
3.0
 40
3.0
 40
3.0
 40
4.0
 40
4.0
 40
4.0
 40
5.0
 40
5.0
 40
5.0
 40
6.0
 40
6.0
 40
6.0
 40
7.0
 40
7.0
 40
7.0
 40
8.0
 40
8.0
 40
8.0
 40
9.0
 40
9.0
 40
9.0
 40
10.0
 40
10.0
 40
10.0
 40
11.0
 40
11.0
 40
11.0
 40
12.0
 40
12.0
 40
12.0
 40
13.0
 40
13.0
 40
13.0
 40
14.0
 40
14.0
 40
14.0
 40
15.0
 40
15.0
 40
15.0
 40
15.0
 10
150.3903923470281
 20
-107.4562008258296
 30
0.0
 10
157.9116171511916
 20
-104.8421269671624
 30
0.0
 10
157.4797456339095
 20
-103.1573499507705
 30
0.0
 10
161.03928288481
 20
-101.7885704507872
 30
0.0
 10
163.7556760793891
 20
-100.7443620092079
 30
0.0
 10
166.9518418839829
 20
-100.2963273413512
 30
0.0
 10
168.377056354384
 20
-100.1411042578939
 30
0.0
 10
168.853319273373
 20
-100.0881789785018
 30
0.0
 10
169.1320059662829
 20
-100.0670131731143
 30
0.0
 10
169.1320059662829
 20
-100.0670131731143
 30
0.0
 10
169.1320059662829
 20
-100.0670131731143
 30
0.0
 10
169.1320059662829
 20
-85.14098626034186
 30
0.0
 10
169.1320059662829
 20
-85.14098626034186
 30
0.0
 10
169.1320059662829
 20
-85.14098626034186
 30
0.0
 10
175.1327594098782
 20
-85.14098626034186
 30
0.0
 10
175.1327594098782
 20
-85.14098626034186
 30
0.0
 10
175.1327594098782
 20
-85.14098626034186
 30
0.0
 10
175.1327594098782
 20
-100.0670131731143
 30
0.0
 10
175.1327594098782
 20
-100.0670131731143
 30
0.0
 10
175.1327594098782
 20
-100.0670131731143
 30
0.0
 10
175.1327594098782
 20
-100.0670131731143
 30
0.0
 10
175.1362906327506
 20
-100.0670131731143
 30
0.0
 10
175.2809200475907
 20
-100.0670131731143
 30
0.0
 10
178.7981041558694
 20
-100.0246815623393
 30
0.0
 10
183.5747290461683
 20
-96.11238806559598
 30
0.0
 10
188.1149773224855
 20
-92.39056528549345
 30
0.0
 10
190.1505119899454
 20
-91.00061998012262
 30
0.0
 10
197.5835208178397
 20
-90.78896192624758
 30
0.0
 10
202.6317914871506
 20
-90.64433251140743
 30
0.0
 10
204.900150013873
 20
-86.66498884378248
 30
0.0
 10
205.1470772327783
 20
-82.54807820706213
 30
0.0
 10
204.864859316996
 20
-78.4100017649543
 30
0.0
 10
201.4147038477522
 20
-75.14327609845327
 30
0.0
 10
197.206067543737
 20
-75.14327609845327
 30
0.0
 10
197.206067543737
 20
-75.14327609845327
 30
0.0
 10
144.7268418895391
 20
-75.14327609845327
 30
0.0
 10
144.7268418895391
 20
-75.14327609845327
 30
0.0
 10
137.173857611371
 20
-75.14327609845327
 30
0.0
 10
130.880314115223
 20
-80.53370934498977
 30
0.0
 10
129.4833063641074
 20
-87.68099056607622
 30
0.0
 10
128.7953584230706
 20
-93.36315155426831
 30
0.0
 10
129.569004286632
 20
-100.9705793377241
 30
0.0
 10
133.3163102255
 20
-104.693324440945
 30
0.0
 10
136.2430989032714
 20
-107.600930170522
 30
0.0
 10
143.5147569049536
 20
-109.8445132709791
 30
0.0
 10
150.3903923470281
 20
-107.4562008258296
 30
0.0
  0
ENDSEC
  0
SECTION
  2
OBJECTS
  0
DICTIONARY
  5
C
330
0
100
AcDbDictionary
  3
ACAD_GROUP
350
D
  3
ACAD_LAYOUT
350
1A
  3
ACAD_MATERIAL
350
3B
  3
ACAD_MLEADERSTYLE
350
92
  3
ACAD_MLINESTYLE
350
17
  3
ACAD_PLOTSETTINGS
350
19
  3
ACAD_VISUALSTYLE
350
2A
  3
ACDBHEADERROUNDTRIPXREC
350
70
  3
ACDBVARIABLEDICTIONARY
350
90
  0
DICTIONARY
  5
D
102
{ACAD_REACTORS
330
C
102
}
330
C
100
AcDbDictionary
  0
DICTIONARY
  5
1A
102
{ACAD_REACTORS
330
C
102
}
330
C
100
AcDbDictionary
  0
DICTIONARY
  5
3B
102
{ACAD_REACTORS
330
C
102
}
330
C
100
AcDbDictionary
  3
BYBLOCK
350
3D
  3
BYLAYER
350
3C
  3
GLOBAL
350
3E
  0
DICTIONARY
  5
92
102
{ACAD_REACTORS
330
C
102
}
330
C
100
AcDbDictionary
  0
DICTIONARY
  5
17
102
{ACAD_REACTORS
330
C
102
}
330
C
100
AcDbDictionary
  3
STANDARD
350
18
  0
DICTIONARY
  5
19
102
{ACAD_REACTORS
330
C
102
}
330
C
100
AcDbDictionary
  0
DICTIONARY
  5
2A
102
{ACAD_REACTORS
330
C
102
}
330
C
100
AcDbDictionary
  3
2DWIREFRAME
350
2F
  3
3D_HIDDEN
350
31
  3
3DWIREFRAME
350
30
  3
BASIC
350
32
  3
BRIGHTEN
350
36
  3
COLORCHANGE
350
3A
  3
CONCEPTUAL
350
34
  3
DIM
350
35
  3
FACEPATTERN
350
39
  3
FLAT
350
2B
  3
FLATWITHEDGES
350
2C
  3
GOURAUD
350
2D
  3
GOURAUDWITHEDGES
350
2E
  3
LINEPATTERN
350
38
  3
REALISTIC
350
33
  3
THICKEN
350
37
  0
DICTIONARY
  5
70
102
{ACAD_REACTORS
330
C
102
}
330
C
100
AcDbDictionary
  3
CEPSNTYPE
350
79
  3
DIMSTYLEDATA
350
8F
  3
FINGERPRINTGUID
350
7A
  3
HYPERLINKBASE
350
73
  3
INSUNITS
350
78
  3
LAYOUTDICT
350
75
  3
LWETCUNION
350
77
  3
PLOTSETDICT
350
76
  3
PSVPSCALE
350
7C
  3
PUCSBASE
350
7F
  3
PUCSORGBACK
350
85
  3
PUCSORGBOTTOM
350
81
  3
PUCSORGFRONT
350
84
  3
PUCSORGLEFT
350
82
  3
PUCSORGRIGHT
350
83
  3
PUCSORGTOP
350
80
  3
PUCSORTHOREF
350
7D
  3
PUCSORTHOVIEW
350
7E
  3
STYLESHEET
350
74
  3
TSTACKALIGN
350
71
  3
TSTACKSIZE
350
72
  3
UCSBASE
350
88
  3
UCSORGBACK
350
8E
  3
UCSORGBOTTOM
350
8A
  3
UCSORGFRONT
350
8D
  3
UCSORGLEFT
350
8B
  3
UCSORGRIGHT
350
8C
  3
UCSORGTOP
350
89
  3
UCSORTHOREF
350
86
  3
UCSORTHOVIEW
350
87
  3
VERSIONGUID
350
7B
  0
DICTIONARY
  5
90
102
{ACAD_REACTORS
330
C
102
}
330
C
100
AcDbDictionary
  3
DIMASSOC
350
93
  3
HIDETEXT
350
94
  0
MATERIAL
  5
3D
102
{ACAD_REACTORS
330
3B
102
}
102
{ACAD_XDICTIONARY
360
97
102
}
330
3B
100
AcDbMaterial
  1
ByBlock
  0
MATERIAL
  5
3C
102
{ACAD_REACTORS
330
3B
102
}
102
{ACAD_XDICTIONARY
360
95
102
}
330
3B
100
AcDbMaterial
  1
ByLayer
  0
MATERIAL
  5
3E
102
{ACAD_REACTORS
330
3B
102
}
102
{ACAD_XDICTIONARY
360
99
102
}
330
3B
100
AcDbMaterial
  1
Global
  0
MLINESTYLE
  5
18
102
{ACAD_REACTORS
330
17
102
}
330
17
100
AcDbMlineStyle
  2
Standard
 70
     0
  3

 62
   256
 51
90.0
 52
90.0
 71
     2
 49
0.5
 62
   256
  6
BYLAYER
 49
-0.5
 62
   256
  6
BYLAYER
  0
ACAD_PROXY_OBJECT
  5
2F
102
{ACAD_REACTORS
330
2A
102
}
330
2A
100
AcDbProxyObject
 90
      499
 91
      501
 93
      436
310
42CC9915DA5C99599C985B595049028333333333333E3BF0000000000000FB0107901411070040501600405405064090741402480A0340
1001
ACAD
1000
AcDbSavedByObjectVersion
1070
     0
  0
ACAD_PROXY_OBJECT
  5
31
102
{ACAD_REACTORS
330
2A
102
}
330
2A
100
AcDbProxyObject
 90
      499
 91
      501
 93
      500
310
424CD108121A5919195B90640502408333333333333E3BF0000000000000FB01079024090700405020000000000001110200405405064090740C02480A0340
1001
ACAD
1000
AcDbSavedByObjectVersion
1070
     0
  0
ACAD_PROXY_OBJECT
  5
30
102
{ACAD_REACTORS
330
2A
102
}
330
2A
100
AcDbProxyObject
 90
      499
 91
      501
 93
      436
310
42CCD915DA5C99599C985B595059028333333333333E3BF0000000000000FB0107901411070040501600405405064090741402480A0340
1001
ACAD
1000
AcDbSavedByObjectVersion
1070
     0
  0
ACAD_PROXY_OBJECT
  5
32
102
{ACAD_REACTORS
330
2A
102
}
330
2A
100
AcDbProxyObject
 90
      499
 91
      501
 93
      388
310
4150985CDA58D07406404333333333333E3BF0000000000000FB0107A41107004050150841D405064090741402480A0350
1001
ACAD
1000
AcDbSavedByObjectVersion
1070
     0
  0
ACAD_PROXY_OBJECT
  5
36
102
{ACAD_REACTORS
330
2A
102
}
330
2A
100
AcDbProxyObject
 90
      499
 91
      501
 93
      428
310
42109C9A59DA1D195B90C409028333333333333E3BF0000000000000FB010790141107004050150841D405064090741402480A029950
1001
ACAD
1000
AcDbSavedByObjectVersion
1070
     0
  0
ACAD_PROXY_OBJECT
  5
3A
102
{ACAD_REACTORS
330
2A
102
}
330
2A
100
AcDbProxyObject
 90
      499
 91
      501
 93
      452
310
42D0DBDB1BDC90DA185B99D95104090240C333333333333E3BF0000000000000FB0108901411070040501508421405064090741402480A0350
1001
ACAD
1000
AcDbSavedByObjectVersion
1070
     0
  0
ACAD_PROXY_OBJECT
  5
34
102
{ACAD_REACTORS
330
2A
102
}
330
2A
100
AcDbProxyObject
 90
      499
 91
      501
 93
      500
310
4290DBDB98D95C1D1D585B10940D028333333333333E3BF0000000000000FB0107902409070040501000000000000111010841D405064090740C02480A0340
1001
ACAD
1000
AcDbSavedByObjectVersion
1070
     0
  0
ACAD_PROXY_OBJECT
  5
35
102
{ACAD_REACTORS
330
2A
102
}
330
2A
100
AcDbProxyObject
 90
      499
 91
      501
 93
      412
310
40D11A5B50B409028333333333333E3BF0000000000000FB010790141107004050150841D405064090741402480A02677FFFFFD0
1001
ACAD
1000
AcDbSavedByObjectVersion
1070
     0
  0
ACAD_PROXY_OBJECT
  5
39
102
{ACAD_REACTORS
330
2A
102
}
330
2A
100
AcDbProxyObject
 90
      499
 91
      501
 93
      444
310
42D19858D95C185D1D195C9B90F409028333333333333E3BF0000000000000FB010790141107004050150841D405064090741402480A0350
1001
ACAD
1000
AcDbSavedByObjectVersion
1070
     0
  0
ACAD_PROXY_OBJECT
  5
2B
102
{ACAD_REACTORS
330
2A
102
}
330
2A
100
AcDbProxyObject
 90
      499
 91
      501
 93
      388
310
41119B185D240901404333333333333E3BF0000000000000F9010740A41107004050150841D405064090741402480A1B50
1001
ACAD
1000
AcDbSavedByObjectVersion
1070
     0
  0
ACAD_PROXY_OBJECT
  5
2C
102
{ACAD_REACTORS
330
2A
102
}
330
2A
100
AcDbProxyObject
 90
      499
 91
      501
 93
      476
310
43519B185D15DA5D1A115919D95CD0140901404333333333333E3BF0000000000000F9010740901411070040501600405405064090741402480A1B50
1001
ACAD
1000
AcDbSavedByObjectVersion
1070
     0
  0
ACAD_PROXY_OBJECT
  5
2D
102
{ACAD_REACTORS
330
2A
102
}
330
2A
100
AcDbProxyObject
 90
      499
 91
      501
 93
      412
310
41D1DBDD5C985D5910240902404333333333333E3BF0000000000000F9010740A411070040501641D405064090741402480A1B50
1001
ACAD
1000
AcDbSavedByObjectVersion
1070
     0
  0
ACAD_PROXY_OBJECT
  5
2E
102
{ACAD_REACTORS
330
2A
102
}
330
2A
100
AcDbProxyObject
 90
      499
 91
      501
 93
      500
310
4411DBDD5C985D5915DA5D1A115919D95CD0340902404333333333333E3BF0000000000000F9010740901411070040501600405405064090741402480A1B50
1001
ACAD
1000
AcDbSavedByObjectVersion
1070
     0
  0
ACAD_PROXY_OBJECT
  5
38
102
{ACAD_REACTORS
330
2A
102
}
330
2A
100
AcDbProxyObject
 90
      499
 91
      501
 93
      444
310
42D31A5B995C185D1D195C9B90E409028333333333333E3BF0000000000000FB010790141107004050750841D405064090741402483A0350
1001
ACAD
1000
AcDbSavedByObjectVersion
1070
     0
  0
ACAD_PROXY_OBJECT
  5
33
102
{ACAD_REACTORS
330
2A
102
}
330
2A
100
AcDbProxyObject
 90
      499
 91
      501
 93
      420
310
425499585B1A5CDD1A58D08409028333333333333E3BF0000000000000FB01079019070040501508421405064090741402480A1B40
1001
ACAD
1000
AcDbSavedByObjectVersion
1070
     0
  0
ACAD_PROXY_OBJECT
  5
37
102
{ACAD_REACTORS
330
2A
102
}
330
2A
100
AcDbProxyObject
 90
      499
 91
      501
 93
      412
310
41D51A1A58DAD95B90D409028333333333333E3BF0000000000000FB010790141107004050150C41D405064090741402480A0350
1001
ACAD
1000
AcDbSavedByObjectVersion
1070
     0
  0
XRECORD
  5
79
102
{ACAD_REACTORS
330
70
102
}
330
70
100
AcDbXrecord
 90
        0
  0
XRECORD
  5
8F
102
{ACAD_REACTORS
330
70
102
}
330
70
100
AcDbXrecord
1000
DSTYLE
1002
{
1070
   340
340
11
1002
}
  0
XRECORD
  5
7A
102
{ACAD_REACTORS
330
70
102
}
330
70
100
AcDbXrecord
  1
{BA58C1D3-DFCA-41F0-89A4-052FBEC678FC}
  0
XRECORD
  5
73
102
{ACAD_REACTORS
330
70
102
}
330
70
100
AcDbXrecord
  1

  0
XRECORD
  5
78
102
{ACAD_REACTORS
330
70
102
}
330
70
100
AcDbXrecord
 90
        4
  0
XRECORD
  5
75
102
{ACAD_REACTORS
330
70
102
}
330
70
100
AcDbXrecord
340
1A
  0
XRECORD
  5
77
102
{ACAD_REACTORS
330
70
102
}
330
70
100
AcDbXrecord
 90
    10269
  0
XRECORD
  5
76
102
{ACAD_REACTORS
330
70
102
}
330
70
100
AcDbXrecord
340
19
  0
XRECORD
  5
7C
102
{ACAD_REACTORS
330
70
102
}
330
70
100
AcDbXrecord
 40
0.0
  0
XRECORD
  5
7F
102
{ACAD_REACTORS
330
70
102
}
330
70
100
AcDbXrecord
340
0
  0
XRECORD
  5
85
102
{ACAD_REACTORS
330
70
102
}
330
70
100
AcDbXrecord
 10
0.0
 20
0.0
 30
0.0
  0
XRECORD
  5
81
102
{ACAD_REACTORS
330
70
102
}
330
70
100
AcDbXrecord
 10
0.0
 20
0.0
 30
0.0
  0
XRECORD
  5
84
102
{ACAD_REACTORS
330
70
102
}
330
70
100
AcDbXrecord
 10
0.0
 20
0.0
 30
0.0
  0
XRECORD
  5
82
102
{ACAD_REACTORS
330
70
102
}
330
70
100
AcDbXrecord
 10
0.0
 20
0.0
 30
0.0
  0
XRECORD
  5
83
102
{ACAD_REACTORS
330
70
102
}
330
70
100
AcDbXrecord
 10
0.0
 20
0.0
 30
0.0
  0
XRECORD
  5
80
102
{ACAD_REACTORS
330
70
102
}
330
70
100
AcDbXrecord
 10
0.0
 20
0.0
 30
0.0
  0
XRECORD
  5
7D
102
{ACAD_REACTORS
330
70
102
}
330
70
100
AcDbXrecord
340
0
  0
XRECORD
  5
7E
102
{ACAD_REACTORS
330
70
102
}
330
70
100
AcDbXrecord
 70
     0
  0
XRECORD
  5
74
102
{ACAD_REACTORS
330
70
102
}
330
70
100
AcDbXrecord
  1

  0
XRECORD
  5
71
102
{ACAD_REACTORS
330
70
102
}
330
70
100
AcDbXrecord
 90
        1
  0
XRECORD
  5
72
102
{ACAD_REACTORS
330
70
102
}
330
70
100
AcDbXrecord
 90
       70
  0
XRECORD
  5
88
102
{ACAD_REACTORS
330
70
102
}
330
70
100
AcDbXrecord
340
0
  0
XRECORD
  5
8E
102
{ACAD_REACTORS
330
70
102
}
330
70
100
AcDbXrecord
 10
0.0
 20
0.0
 30
0.0
  0
XRECORD
  5
8A
102
{ACAD_REACTORS
330
70
102
}
330
70
100
AcDbXrecord
 10
0.0
 20
0.0
 30
0.0
  0
XRECORD
  5
8D
102
{ACAD_REACTORS
330
70
102
}
330
70
100
AcDbXrecord
 10
0.0
 20
0.0
 30
0.0
  0
XRECORD
  5
8B
102
{ACAD_REACTORS
330
70
102
}
330
70
100
AcDbXrecord
 10
0.0
 20
0.0
 30
0.0
  0
XRECORD
  5
8C
102
{ACAD_REACTORS
330
70
102
}
330
70
100
AcDbXrecord
 10
0.0
 20
0.0
 30
0.0
  0
XRECORD
  5
89
102
{ACAD_REACTORS
330
70
102
}
330
70
100
AcDbXrecord
 10
0.0
 20
0.0
 30
0.0
  0
XRECORD
  5
86
102
{ACAD_REACTORS
330
70
102
}
330
70
100
AcDbXrecord
340
0
  0
XRECORD
  5
87
102
{ACAD_REACTORS
330
70
102
}
330
70
100
AcDbXrecord
 70
     0
  0
XRECORD
  5
7B
102
{ACAD_REACTORS
330
70
102
}
330
70
100
AcDbXrecord
  1
{FAEB1C32-E019-11D5-929B-00C0DF256EC4}
  0
DICTIONARYVAR
  5
93
102
{ACAD_REACTORS
330
90
102
}
330
90
100
DictionaryVariables
280
     0
  1
2
  0
DICTIONARYVAR
  5
94
102
{ACAD_REACTORS
330
90
102
}
330
90
100
DictionaryVariables
280
     0
  1
1
  0
DICTIONARY
  5
97
330
3D
100
AcDbDictionary
280
     1
  3
ACAD_XREC_ROUNDTRIP
360
98
  0
DICTIONARY
  5
95
330
3C
100
AcDbDictionary
280
     1
  3
ACAD_XREC_ROUNDTRIP
360
96
  0
DICTIONARY
  5
99
330
3E
100
AcDbDictionary
280
     1
  3
ACAD_XREC_ROUNDTRIP
360
9A
  0
XRECORD
  5
98
102
{ACAD_REACTORS
330
97
102
}
330
97
100
AcDbXrecord
102
MATERIAL
148
0.0
149
0.0
149
0.0
 93
        0
 94
      127
282
     0
 72
     1
 77
     1
171
     1
175
     1
179
     1
273
     0
  0
XRECORD
  5
96
102
{ACAD_REACTORS
330
95
102
}
330
95
100
AcDbXrecord
102
MATERIAL
148
0.0
149
0.0
149
0.0
 93
        0
 94
      127
282
     0
 72
     1
 77
     1
171
     1
175
     1
179
     1
273
     0
  0
XRECORD
  5
9A
102
{ACAD_REACTORS
330
99
102
}
330
99
100
AcDbXrecord
102
MATERIAL
148
0.0
149
0.0
149
0.0
 93
        0
 94
      127
282
     0
 72
     1
 77
     1
171
     1
175
     1
179
     1
273
     0
  0
ENDSEC
  0
EOF
