  0
SECTION
  2
HEADER
  9
$ACADVER
  1
AC1014
  9
$ACADMAINTVER
 70
     9
  9
$DWGCODEPAGE
  3
ANSI_1252
  9
$INSBASE
 10
0.0
 20
0.0
 30
0.0
  9
$EXTMIN
 10
1.000000000000000E+20
 20
1.000000000000000E+20
 30
1.000000000000000E+20
  9
$EXTMAX
 10
-1.000000000000000E+20
 20
-1.000000000000000E+20
 30
-1.000000000000000E+20
  9
$LIMMIN
 10
0.0
 20
0.0
  9
$LIMMAX
 10
12.0
 20
9.0
  9
$ORTHOMODE
 70
     0
  9
$REGENMODE
 70
     1
  9
$FILLMODE
 70
     1
  9
$QTEXTMODE
 70
     0
  9
$MIRRTEXT
 70
     1
  9
$DRAGMODE
 70
     2
  9
$LTSCALE
 40
1.0
  9
$OSMODE
 70
    37
  9
$ATTMODE
 70
     1
  9
$TEXTSIZE
 40
0.2
  9
$TRACEWID
 40
0.05
  9
$TEXTSTYLE
  7
STANDARD
  9
$CLAYER
  8
0
  9
$CELTYPE
  6
BYLAYER
  9
$CECOLOR
 62
   256
  9
$CELTSCALE
 40
1.0
  9
$DELOBJ
 70
     1
  9
$DISPSILH
 70
     0
  9
$DIMSCALE
 40
1.0
  9
$DIMASZ
 40
0.18
  9
$DIMEXO
 40
0.0625
  9
$DIMDLI
 40
0.38
  9
$DIMRND
 40
0.0
  9
$DIMDLE
 40
0.0
  9
$DIMEXE
 40
0.18
  9
$DIMTP
 40
0.0
  9
$DIMTM
 40
0.0
  9
$DIMTXT
 40
0.18
  9
$DIMCEN
 40
0.09
  9
$DIMTSZ
 40
0.0
  9
$DIMTOL
 70
     0
  9
$DIMLIM
 70
     0
  9
$DIMTIH
 70
     1
  9
$DIMTOH
 70
     1
  9
$DIMSE1
 70
     0
  9
$DIMSE2
 70
     0
  9
$DIMTAD
 70
     0
  9
$DIMZIN
 70
     0
  9
$DIMBLK
  1

  9
$DIMASO
 70
     1
  9
$DIMSHO
 70
     1
  9
$DIMPOST
  1

  9
$DIMAPOST
  1

  9
$DIMALT
 70
     0
  9
$DIMALTD
 70
     2
  9
$DIMALTF
 40
25.4
  9
$DIMLFAC
 40
1.0
  9
$DIMTOFL
 70
     0
  9
$DIMTVP
 40
0.0
  9
$DIMTIX
 70
     0
  9
$DIMSOXD
 70
     0
  9
$DIMSAH
 70
     0
  9
$DIMBLK1
  1

  9
$DIMBLK2
  1

  9
$DIMSTYLE
  2
STANDARD
  9
$DIMCLRD
 70
     0
  9
$DIMCLRE
 70
     0
  9
$DIMCLRT
 70
     0
  9
$DIMTFAC
 40
1.0
  9
$DIMGAP
 40
0.09
  9
$DIMJUST
 70
     0
  9
$DIMSD1
 70
     0
  9
$DIMSD2
 70
     0
  9
$DIMTOLJ
 70
     1
  9
$DIMTZIN
 70
     0
  9
$DIMALTZ
 70
     0
  9
$DIMALTTZ
 70
     0
  9
$DIMFIT
 70
     3
  9
$DIMUPT
 70
     0
  9
$DIMUNIT
 70
     2
  9
$DIMDEC
 70
     4
  9
$DIMTDEC
 70
     4
  9
$DIMALTU
 70
     2
  9
$DIMALTTD
 70
     2
  9
$DIMTXSTY
  7
STANDARD
  9
$DIMAUNIT
 70
     0
  9
$LUNITS
 70
     2
  9
$LUPREC
 70
     4
  9
$SKETCHINC
 40
0.1
  9
$FILLETRAD
 40
0.5
  9
$AUNITS
 70
     0
  9
$AUPREC
 70
     0
  9
$MENU
  1
.
  9
$ELEVATION
 40
0.0
  9
$PELEVATION
 40
0.0
  9
$THICKNESS
 40
0.0
  9
$LIMCHECK
 70
     0
  9
$CHAMFERA
 40
0.5
  9
$CHAMFERB
 40
0.5
  9
$CHAMFERC
 40
1.0
  9
$CHAMFERD
 40
0.0
  9
$SKPOLY
 70
     0
  9
$TDCREATE
 40
2459288.469706065
  9
$TDUPDATE
 40
2459288.469706181
  9
$TDINDWG
 40
0.0000000116
  9
$TDUSRTIMER
 40
0.0000000116
  9
$USRTIMER
 70
     1
  9
$ANGBASE
 50
0.0
  9
$ANGDIR
 70
     0
  9
$PDMODE
 70
     0
  9
$PDSIZE
 40
0.0
  9
$PLINEWID
 40
0.0
  9
$COORDS
 70
     1
  9
$SPLFRAME
 70
     0
  9
$SPLINETYPE
 70
     6
  9
$SPLINESEGS
 70
     8
  9
$ATTDIA
 70
     0
  9
$ATTREQ
 70
     1
  9
$HANDLING
 70
     1
  9
$HANDSEED
  5
94
  9
$SURFTAB1
 70
     6
  9
$SURFTAB2
 70
     6
  9
$SURFTYPE
 70
     6
  9
$SURFU
 70
     6
  9
$SURFV
 70
     6
  9
$UCSNAME
  2

  9
$UCSORG
 10
0.0
 20
0.0
 30
0.0
  9
$UCSXDIR
 10
1.0
 20
0.0
 30
0.0
  9
$UCSYDIR
 10
0.0
 20
1.0
 30
0.0
  9
$PUCSNAME
  2

  9
$PUCSORG
 10
0.0
 20
0.0
 30
0.0
  9
$PUCSXDIR
 10
1.0
 20
0.0
 30
0.0
  9
$PUCSYDIR
 10
0.0
 20
1.0
 30
0.0
  9
$USERI1
 70
     0
  9
$USERI2
 70
     0
  9
$USERI3
 70
     0
  9
$USERI4
 70
     0
  9
$USERI5
 70
     0
  9
$USERR1
 40
0.0
  9
$USERR2
 40
0.0
  9
$USERR3
 40
0.0
  9
$USERR4
 40
0.0
  9
$USERR5
 40
0.0
  9
$WORLDVIEW
 70
     1
  9
$SHADEDGE
 70
     3
  9
$SHADEDIF
 70
    70
  9
$TILEMODE
 70
     1
  9
$MAXACTVP
 70
    64
  9
$PINSBASE
 10
0.0
 20
0.0
 30
0.0
  9
$PLIMCHECK
 70
     0
  9
$PEXTMIN
 10
1.000000000000000E+20
 20
1.000000000000000E+20
 30
1.000000000000000E+20
  9
$PEXTMAX
 10
-1.000000000000000E+20
 20
-1.000000000000000E+20
 30
-1.000000000000000E+20
  9
$PLIMMIN
 10
0.0
 20
0.0
  9
$PLIMMAX
 10
12.0
 20
9.0
  9
$UNITMODE
 70
     0
  9
$VISRETAIN
 70
     1
  9
$PLINEGEN
 70
     0
  9
$PSLTSCALE
 70
     1
  9
$TREEDEPTH
 70
  3020
  9
$PICKSTYLE
 70
     1
  9
$CMLSTYLE
  2
STANDARD
  9
$CMLJUST
 70
     0
  9
$CMLSCALE
 40
1.0
  9
$PROXYGRAPHICS
 70
     1
  9
$MEASUREMENT
 70
     0
  0
ENDSEC
  0
SECTION
  2
CLASSES
  0
CLASS
  1
ACDBDICTIONARYWDFLT
  2
AcDbDictionaryWithDefault
  3
ObjectDBX Classes
 90
        0
280
     0
281
     0
  0
CLASS
  1
VISUALSTYLE
  2
AcDbVisualStyle
  3
ObjectDBX Classes
 90
     4095
280
     0
281
     0
  0
CLASS
  1
MATERIAL
  2
AcDbMaterial
  3
ObjectDBX Classes
 90
     1153
280
     0
281
     0
  0
CLASS
  1
SUN
  2
AcDbSun
  3
SCENEOE
 90
     1024
280
     0
281
     0
  0
CLASS
  1
DICTIONARYVAR
  2
AcDbDictionaryVar
  3
ObjectDBX Classes
 90
        0
280
     0
281
     0
  0
CLASS
  1
XRECORD
  2
AcDbXrecord
  3
AutoCAD 2000
 90
        0
280
     0
281
     0
  0
CLASS
  1
LWPOLYLINE
  2
AcDbPolyline
  3
AutoCAD 2000
 90
        0
280
     0
281
     1
  0
CLASS
  1
HATCH
  2
AcDbHatch
  3
AutoCAD 2000
 90
        0
280
     0
281
     1
  0
CLASS
  1
ACDBPLACEHOLDER
  2
AcDbPlaceHolder
  3
ObjectDBX Classes
 90
        0
280
     0
281
     0
  0
CLASS
  1
LAYOUT
  2
AcDbLayout
  3
ObjectDBX Classes
 90
        0
280
     0
281
     0
  0
ENDSEC
  0
SECTION
  2
TABLES
  0
TABLE
  2
VPORT
  5
8
330
0
100
AcDbSymbolTable
 70
     1
  0
VPORT
  5
29
330
8
100
AcDbSymbolTableRecord
100
AcDbViewportTableRecord
  2
*ACTIVE
 70
     0
 10
0.0
 20
0.0
 11
1.0
 21
1.0
 12
0.0
 22
0.0
 13
0.0
 23
0.0
 14
0.5
 24
0.5
 15
0.5
 25
0.5
 16
0.0
 26
0.0
 36
1.0
 17
104.9999999737534
 27
-148.4999999628701
 37
0.0
 40
296.9999999257402
 41
0.7070707070707533
 42
50.0
 43
0.0
 44
0.0
 50
0.0
 51
0.0
 71
     0
 72
   100
 73
     1
 74
     3
 75
     0
 76
     0
 77
     0
 78
     0
  0
ENDTAB
  0
TABLE
  2
LTYPE
  5
5
330
0
100
AcDbSymbolTable
 70
     1
  0
LTYPE
  5
14
330
5
100
AcDbSymbolTableRecord
100
AcDbLinetypeTableRecord
  2
BYBLOCK
 70
     0
  3

 72
    65
 73
     0
 40
0.0
  0
LTYPE
  5
15
330
5
100
AcDbSymbolTableRecord
100
AcDbLinetypeTableRecord
  2
BYLAYER
 70
     0
  3

 72
    65
 73
     0
 40
0.0
  0
LTYPE
  5
16
330
5
100
AcDbSymbolTableRecord
100
AcDbLinetypeTableRecord
  2
CONTINUOUS
 70
     0
  3
Solid line
 72
    65
 73
     0
 40
0.0
  0
ENDTAB
  0
TABLE
  2
LAYER
  5
2
330
0
100
AcDbSymbolTable
 70
     2
  0
LAYER
  5
10
330
2
100
AcDbSymbolTableRecord
100
AcDbLayerTableRecord
  2
0
 70
     0
 62
     7
  6
CONTINUOUS
  0
LAYER
  5
40
330
2
100
AcDbSymbolTableRecord
100
AcDbLayerTableRecord
  2
LAYER_1
 70
     0
 62
     7
  6
CONTINUOUS
  0
ENDTAB
  0
TABLE
  2
STYLE
  5
3
330
0
100
AcDbSymbolTable
 70
     1
  0
STYLE
  5
11
330
3
100
AcDbSymbolTableRecord
100
AcDbTextStyleTableRecord
  2
STANDARD
 70
     0
 40
0.0
 41
1.0
 50
0.0
 71
     0
 42
0.2
  3
txt
  4

  0
ENDTAB
  0
TABLE
  2
VIEW
  5
6
330
0
100
AcDbSymbolTable
 70
     0
  0
ENDTAB
  0
TABLE
  2
UCS
  5
7
330
0
100
AcDbSymbolTable
 70
     0
  0
ENDTAB
  0
TABLE
  2
APPID
  5
9
330
0
100
AcDbSymbolTable
 70
     1
  0
APPID
  5
12
330
9
100
AcDbSymbolTableRecord
100
AcDbRegAppTableRecord
  2
ACAD
 70
     0
  0
ENDTAB
  0
TABLE
  2
DIMSTYLE
  5
A
330
0
100
AcDbSymbolTable
 70
     1
  0
DIMSTYLE
105
27
330
A
100
AcDbSymbolTableRecord
100
AcDbDimStyleTableRecord
  2
STANDARD
 70
     0
  3

  4

  5

  6

  7

 40
1.0
 41
0.18
 42
0.0625
 43
0.38
 44
0.18
 45
0.0
 46
0.0
 47
0.0
 48
0.0
140
0.18
141
0.09
142
0.0
143
25.4
144
1.0
145
0.0
146
1.0
147
0.09
 71
     0
 72
     0
 73
     1
 74
     1
 75
     0
 76
     0
 77
     0
 78
     0
170
     0
171
     2
172
     0
173
     0
174
     0
175
     0
176
     0
177
     0
178
     0
270
     2
271
     4
272
     4
273
     2
274
     2
340
11
275
     0
280
     0
281
     0
282
     0
283
     1
284
     0
285
     0
286
     0
287
     3
288
     0
  0
ENDTAB
  0
TABLE
  2
BLOCK_RECORD
  5
1
330
0
100
AcDbSymbolTable
 70
     1
  0
BLOCK_RECORD
  5
1F
330
1
100
AcDbSymbolTableRecord
100
AcDbBlockTableRecord
  2
*MODEL_SPACE
  0
BLOCK_RECORD
  5
1B
330
1
100
AcDbSymbolTableRecord
100
AcDbBlockTableRecord
  2
*PAPER_SPACE
  0
ENDTAB
  0
ENDSEC
  0
SECTION
  2
BLOCKS
  0
BLOCK
  5
20
330
1F
100
AcDbEntity
  8
0
100
AcDbBlockBegin
  2
*MODEL_SPACE
 70
     0
 10
0.0
 20
0.0
 30
0.0
  3
*MODEL_SPACE
  1

  0
ENDBLK
  5
21
330
1F
100
AcDbEntity
  8
0
100
AcDbBlockEnd
  0
BLOCK
  5
1C
330
1B
100
AcDbEntity
 67
     1
  8
0
100
AcDbBlockBegin
  2
*PAPER_SPACE
 70
     0
 10
0.0
 20
0.0
 30
0.0
  3
*PAPER_SPACE
  1

  0
ENDBLK
  5
1D
330
1B
100
AcDbEntity
 67
     1
  8
0
100
AcDbBlockEnd
  0
ENDSEC
  0
SECTION
  2
ENTITIES
  0
POLYLINE
  5
41
330
1F
100
AcDbEntity
  8
LAYER_1
 62
     1
100
AcDb2dPolyline
 66
     1
 10
0.0
 20
0.0
 30
0.0
  0
VERTEX
  5
42
330
41
100
AcDbEntity
  8
LAYER_1
 62
     1
100
AcDbVertex
100
AcDb2dVertex
 10
165.3394215087926
 20
-169.3232231354843
 30
0.0
  0
VERTEX
  5
43
330
41
100
AcDbEntity
  8
LAYER_1
 62
     1
100
AcDbVertex
100
AcDb2dVertex
 10
160.3440761188733
 20
-169.3232231354843
 30
0.0
  0
VERTEX
  5
44
330
41
100
AcDbEntity
  8
LAYER_1
 62
     1
100
AcDbVertex
100
AcDb2dVertex
 10
160.3440761188733
 20
-168.3283872185781
 30
0.0
  0
VERTEX
  5
45
330
41
100
AcDbEntity
  8
LAYER_1
 62
     1
100
AcDbVertex
100
AcDb2dVertex
 10
156.5905369284597
 20
-168.3283872185781
 30
0.0
  0
VERTEX
  5
46
330
41
100
AcDbEntity
  8
LAYER_1
 62
     1
100
AcDbVertex
100
AcDb2dVertex
 10
156.5905369284597
 20
-145.3061060014604
 30
0.0
  0
VERTEX
  5
47
330
41
100
AcDbEntity
  8
LAYER_1
 62
     1
100
AcDbVertex
100
AcDb2dVertex
 10
160.3440761188733
 20
-145.3061060014604
 30
0.0
  0
VERTEX
  5
48
330
41
100
AcDbEntity
  8
LAYER_1
 62
     1
100
AcDbVertex
100
AcDb2dVertex
 10
160.3440761188733
 20
-144.3077603935285
 30
0.0
  0
VERTEX
  5
49
330
41
100
AcDbEntity
  8
LAYER_1
 62
     1
100
AcDbVertex
100
AcDb2dVertex
 10
165.3394215087926
 20
-144.3077603935285
 30
0.0
  0
VERTEX
  5
4A
330
41
100
AcDbEntity
  8
LAYER_1
 62
     1
100
AcDbVertex
100
AcDb2dVertex
 10
165.3394215087926
 20
-145.3061060014604
 30
0.0
  0
VERTEX
  5
4B
330
41
100
AcDbEntity
  8
LAYER_1
 62
     1
100
AcDbVertex
100
AcDb2dVertex
 10
169.0929822310524
 20
-145.3061060014604
 30
0.0
  0
VERTEX
  5
4C
330
41
100
AcDbEntity
  8
LAYER_1
 62
     1
100
AcDbVertex
100
AcDb2dVertex
 10
169.0929822310524
 20
-168.3283872185781
 30
0.0
  0
VERTEX
  5
4D
330
41
100
AcDbEntity
  8
LAYER_1
 62
     1
100
AcDbVertex
100
AcDb2dVertex
 10
165.3394215087926
 20
-168.3283872185781
 30
0.0
  0
VERTEX
  5
4E
330
41
100
AcDbEntity
  8
LAYER_1
 62
     1
100
AcDbVertex
100
AcDb2dVertex
 10
165.3394215087926
 20
-169.3232231354843
 30
0.0
  0
SEQEND
  5
4F
330
41
100
AcDbEntity
  8
LAYER_1
 62
     1
  0
SPLINE
  5
50
330
1F
100
AcDbEntity
  8
LAYER_1
 62
     1
100
AcDbSpline
210
0.0
220
0.0
230
1.0
 70
    11
 71
     3
 72
    17
 73
    13
 74
     0
 42
0.0000000001
 43
0.0000000001
 12
1.0
 22
0.0
 32
0.0
 13
1.0
 23
0.0
 33
0.0
 40
0.0
 40
0.0
 40
0.0
 40
0.0
 40
1.0
 40
1.0
 40
1.0
 40
2.0
 40
2.0
 40
2.0
 40
3.0
 40
3.0
 40
3.0
 40
4.0
 40
4.0
 40
4.0
 40
4.0
 10
163.452578801315
 20
-142.8527545465566
 30
0.0
 10
163.4525788013009
 20
-143.1841253963531
 30
0.0
 10
163.1839496512354
 20
-143.4527545463943
 30
0.0
 10
162.8525788014382
 20
-143.4527545463801
 30
0.0
 10
162.5212079516404
 20
-143.452754546366
 30
0.0
 10
162.2525788016012
 20
-143.1841253963005
 30
0.0
 10
162.2525788016153
 20
-142.852754546504
 30
0.0
 10
162.2525788016307
 20
-142.5213836967074
 30
0.0
 10
162.5212079516949
 20
-142.2527545466663
 30
0.0
 10
162.8525788014915
 20
-142.2527545466804
 30
0.0
 10
163.1839496512893
 20
-142.2527545466945
 30
0.0
 10
163.4525788013304
 20
-142.52138369676
 30
0.0
 10
163.452578801315
 20
-142.8527545465566
 30
0.0
  0
SPLINE
  5
51
330
1F
100
AcDbEntity
  8
LAYER_1
 62
     1
100
AcDbSpline
210
0.0
220
0.0
230
1.0
 70
    11
 71
     3
 72
    17
 73
    13
 74
     0
 42
0.0000000001
 43
0.0000000001
 12
1.0
 22
0.0
 32
0.0
 13
1.0
 23
0.0
 33
0.0
 40
0.0
 40
0.0
 40
0.0
 40
0.0
 40
1.0
 40
1.0
 40
1.0
 40
2.0
 40
2.0
 40
2.0
 40
3.0
 40
3.0
 40
3.0
 40
4.0
 40
4.0
 40
4.0
 40
4.0
 10
163.4525788000586
 20
-170.8510878729928
 30
0.0
 10
163.4525788000432
 20
-171.1824587227932
 30
0.0
 10
163.183949649979
 20
-171.4510878728305
 30
0.0
 10
162.8525788001811
 20
-171.4510878728164
 30
0.0
 10
162.5212079503833
 20
-171.4510878728023
 30
0.0
 10
162.2525788003435
 20
-171.1824587227368
 30
0.0
 10
162.2525788003589
 20
-170.8510878729402
 30
0.0
 10
162.252578800373
 20
-170.5197170231437
 30
0.0
 10
162.5212079504385
 20
-170.2510878731026
 30
0.0
 10
162.8525788002357
 20
-170.2510878731167
 30
0.0
 10
163.1839496500322
 20
-170.2510878731308
 30
0.0
 10
163.4525788000733
 20
-170.5197170231963
 30
0.0
 10
163.4525788000586
 20
-170.8510878729928
 30
0.0
  0
SPLINE
  5
52
330
1F
100
AcDbEntity
  8
LAYER_1
 62
     7
100
AcDbSpline
210
0.0
220
0.0
230
1.0
 70
    11
 71
     3
 72
    50
 73
    46
 74
     0
 42
0.0000000001
 43
0.0000000001
 12
1.0
 22
0.0
 32
0.0
 13
1.0
 23
0.0
 33
0.0
 40
0.0
 40
0.0
 40
0.0
 40
0.0
 40
1.0
 40
1.0
 40
1.0
 40
2.0
 40
2.0
 40
2.0
 40
3.0
 40
3.0
 40
3.0
 40
4.0
 40
4.0
 40
4.0
 40
5.0
 40
5.0
 40
5.0
 40
6.0
 40
6.0
 40
6.0
 40
7.0
 40
7.0
 40
7.0
 40
8.0
 40
8.0
 40
8.0
 40
9.0
 40
9.0
 40
9.0
 40
10.0
 40
10.0
 40
10.0
 40
11.0
 40
11.0
 40
11.0
 40
12.0
 40
12.0
 40
12.0
 40
13.0
 40
13.0
 40
13.0
 40
14.0
 40
14.0
 40
14.0
 40
15.0
 40
15.0
 40
15.0
 40
15.0
 10
185.1540597827715
 20
-157.3388888495542
 30
0.0
 10
182.5399859241042
 20
-164.8601136537177
 30
0.0
 10
180.855208907713
 20
-164.4282421364356
 30
0.0
 10
179.4864294077296
 20
-167.987779387336
 30
0.0
 10
178.4422209661504
 20
-170.7041725819152
 30
0.0
 10
177.9941862982937
 20
-173.900338386509
 30
0.0
 10
177.8389632148364
 20
-175.32555285691
 30
0.0
 10
177.7860379354442
 20
-175.801815775899
 30
0.0
 10
177.7648721300567
 20
-176.080502468809
 30
0.0
 10
177.7648721300567
 20
-176.080502468809
 30
0.0
 10
177.7648721300567
 20
-176.080502468809
 30
0.0
 10
162.8388452172843
 20
-176.080502468809
 30
0.0
 10
162.8388452172843
 20
-176.080502468809
 30
0.0
 10
162.8388452172843
 20
-176.080502468809
 30
0.0
 10
162.8388452172843
 20
-182.0812559124043
 30
0.0
 10
162.8388452172843
 20
-182.0812559124043
 30
0.0
 10
162.8388452172843
 20
-182.0812559124043
 30
0.0
 10
177.7648721300567
 20
-182.0812559124043
 30
0.0
 10
177.7648721300567
 20
-182.0812559124043
 30
0.0
 10
177.7648721300567
 20
-182.0812559124043
 30
0.0
 10
177.7648721300567
 20
-182.0812559124043
 30
0.0
 10
177.7648721300567
 20
-182.0847871352767
 30
0.0
 10
177.7648721300567
 20
-182.2294165501168
 30
0.0
 10
177.7225405192817
 20
-185.7466006583955
 30
0.0
 10
173.8102470225384
 20
-190.5232255486944
 30
0.0
 10
170.0884242424359
 20
-195.0634738250116
 30
0.0
 10
168.6984789370651
 20
-197.0990084924714
 30
0.0
 10
168.48682088319
 20
-204.5320173203658
 30
0.0
 10
168.3421914683499
 20
-209.5802879896766
 30
0.0
 10
164.3628478007249
 20
-211.848646516399
 30
0.0
 10
160.2459371640046
 20
-212.0955737353043
 30
0.0
 10
156.1078607218968
 20
-211.813355819522
 30
0.0
 10
152.8411350553957
 20
-208.3632003502782
 30
0.0
 10
152.8411350553957
 20
-204.1545640462631
 30
0.0
 10
152.8411350553957
 20
-204.1545640462631
 30
0.0
 10
152.8411350553957
 20
-151.6753383920652
 30
0.0
 10
152.8411350553957
 20
-151.6753383920652
 30
0.0
 10
152.8411350553957
 20
-144.122354113897
 30
0.0
 10
158.2315683019322
 20
-137.828810617749
 30
0.0
 10
165.3788495230187
 20
-136.4318028666335
 30
0.0
 10
171.0610105112102
 20
-135.7438549255966
 30
0.0
 10
178.6684382946665
 20
-136.5175007891577
 30
0.0
 10
182.3911833978868
 20
-140.2648067280261
 30
0.0
 10
185.2987891274645
 20
-143.1915954057974
 30
0.0
 10
187.5423722279209
 20
-150.4632534074797
 30
0.0
 10
185.1540597827715
 20
-157.3388888495542
 30
0.0
  0
POLYLINE
  5
53
330
1F
100
AcDbEntity
  8
LAYER_1
 62
     1
100
AcDb2dPolyline
 66
     1
 10
0.0
 20
0.0
 30
0.0
  0
VERTEX
  5
54
330
53
100
AcDbEntity
  8
LAYER_1
 62
     1
100
AcDbVertex
100
AcDb2dVertex
 10
203.0880828618201
 20
-169.3232231354849
 30
0.0
  0
VERTEX
  5
55
330
53
100
AcDbEntity
  8
LAYER_1
 62
     1
100
AcDbVertex
100
AcDb2dVertex
 10
198.0927374719008
 20
-169.3232231354849
 30
0.0
  0
VERTEX
  5
56
330
53
100
AcDbEntity
  8
LAYER_1
 62
     1
100
AcDbVertex
100
AcDb2dVertex
 10
198.0927374719008
 20
-168.3283872185787
 30
0.0
  0
VERTEX
  5
57
330
53
100
AcDbEntity
  8
LAYER_1
 62
     1
100
AcDbVertex
100
AcDb2dVertex
 10
194.3391982814872
 20
-168.3283872185787
 30
0.0
  0
VERTEX
  5
58
330
53
100
AcDbEntity
  8
LAYER_1
 62
     1
100
AcDbVertex
100
AcDb2dVertex
 10
194.3391982814872
 20
-145.306106001461
 30
0.0
  0
VERTEX
  5
59
330
53
100
AcDbEntity
  8
LAYER_1
 62
     1
100
AcDbVertex
100
AcDb2dVertex
 10
198.0927374719008
 20
-145.306106001461
 30
0.0
  0
VERTEX
  5
5A
330
53
100
AcDbEntity
  8
LAYER_1
 62
     1
100
AcDbVertex
100
AcDb2dVertex
 10
198.0927374719008
 20
-144.3077603935292
 30
0.0
  0
VERTEX
  5
5B
330
53
100
AcDbEntity
  8
LAYER_1
 62
     1
100
AcDbVertex
100
AcDb2dVertex
 10
203.0880828618201
 20
-144.3077603935292
 30
0.0
  0
VERTEX
  5
5C
330
53
100
AcDbEntity
  8
LAYER_1
 62
     1
100
AcDbVertex
100
AcDb2dVertex
 10
203.0880828618201
 20
-145.306106001461
 30
0.0
  0
VERTEX
  5
5D
330
53
100
AcDbEntity
  8
LAYER_1
 62
     1
100
AcDbVertex
100
AcDb2dVertex
 10
206.8416435840799
 20
-145.306106001461
 30
0.0
  0
VERTEX
  5
5E
330
53
100
AcDbEntity
  8
LAYER_1
 62
     1
100
AcDbVertex
100
AcDb2dVertex
 10
206.8416435840799
 20
-168.3283872185787
 30
0.0
  0
VERTEX
  5
5F
330
53
100
AcDbEntity
  8
LAYER_1
 62
     1
100
AcDbVertex
100
AcDb2dVertex
 10
203.0880828618201
 20
-168.3283872185787
 30
0.0
  0
VERTEX
  5
60
330
53
100
AcDbEntity
  8
LAYER_1
 62
     1
100
AcDbVertex
100
AcDb2dVertex
 10
203.0880828618201
 20
-169.3232231354849
 30
0.0
  0
SEQEND
  5
61
330
53
100
AcDbEntity
  8
LAYER_1
 62
     1
  0
SPLINE
  5
62
330
1F
100
AcDbEntity
  8
LAYER_1
 62
     1
100
AcDbSpline
210
0.0
220
0.0
230
1.0
 70
    11
 71
     3
 72
    17
 73
    13
 74
     0
 42
0.0000000001
 43
0.0000000001
 12
1.0
 22
0.0
 32
0.0
 13
1.0
 23
0.0
 33
0.0
 40
0.0
 40
0.0
 40
0.0
 40
0.0
 40
1.0
 40
1.0
 40
1.0
 40
2.0
 40
2.0
 40
2.0
 40
3.0
 40
3.0
 40
3.0
 40
4.0
 40
4.0
 40
4.0
 40
4.0
 10
201.2012401543425
 20
-142.8527545465572
 30
0.0
 10
201.2012401543284
 20
-143.1841253963538
 30
0.0
 10
200.9326110042629
 20
-143.4527545463949
 30
0.0
 10
200.6012401544657
 20
-143.4527545463808
 30
0.0
 10
200.2698693046679
 20
-143.4527545463667
 30
0.0
 10
200.0012401546287
 20
-143.1841253963011
 30
0.0
 10
200.0012401546428
 20
-142.8527545465046
 30
0.0
 10
200.0012401546582
 20
-142.5213836967081
 30
0.0
 10
200.2698693047224
 20
-142.2527545466669
 30
0.0
 10
200.601240154519
 20
-142.252754546681
 30
0.0
 10
200.9326110043168
 20
-142.2527545466952
 30
0.0
 10
201.2012401543579
 20
-142.5213836967607
 30
0.0
 10
201.2012401543425
 20
-142.8527545465572
 30
0.0
  0
SPLINE
  5
63
330
1F
100
AcDbEntity
  8
LAYER_1
 62
     1
100
AcDbSpline
210
0.0
220
0.0
230
1.0
 70
    11
 71
     3
 72
    17
 73
    13
 74
     0
 42
0.0000000001
 43
0.0000000001
 12
1.0
 22
0.0
 32
0.0
 13
1.0
 23
0.0
 33
0.0
 40
0.0
 40
0.0
 40
0.0
 40
0.0
 40
1.0
 40
1.0
 40
1.0
 40
2.0
 40
2.0
 40
2.0
 40
3.0
 40
3.0
 40
3.0
 40
4.0
 40
4.0
 40
4.0
 40
4.0
 10
201.2012401530861
 20
-170.8510878729935
 30
0.0
 10
201.2012401530707
 20
-171.1824587227939
 30
0.0
 10
200.9326110030065
 20
-171.4510878728312
 30
0.0
 10
200.6012401532086
 20
-171.4510878728171
 30
0.0
 10
200.2698693034108
 20
-171.4510878728029
 30
0.0
 10
200.001240153371
 20
-171.1824587227374
 30
0.0
 10
200.0012401533864
 20
-170.8510878729409
 30
0.0
 10
200.0012401534005
 20
-170.5197170231443
 30
0.0
 10
200.269869303466
 20
-170.2510878731032
 30
0.0
 10
200.6012401532632
 20
-170.2510878731173
 30
0.0
 10
200.9326110030597
 20
-170.2510878731314
 30
0.0
 10
201.2012401531009
 20
-170.519717023197
 30
0.0
 10
201.2012401530861
 20
-170.8510878729935
 30
0.0
  0
SPLINE
  5
64
330
1F
100
AcDbEntity
  8
LAYER_1
 62
     7
100
AcDbSpline
210
0.0
220
0.0
230
1.0
 70
    11
 71
     3
 72
    50
 73
    46
 74
     0
 42
0.0000000001
 43
0.0000000001
 12
1.0
 22
0.0
 32
0.0
 13
1.0
 23
0.0
 33
0.0
 40
0.0
 40
0.0
 40
0.0
 40
0.0
 40
1.0
 40
1.0
 40
1.0
 40
2.0
 40
2.0
 40
2.0
 40
3.0
 40
3.0
 40
3.0
 40
4.0
 40
4.0
 40
4.0
 40
5.0
 40
5.0
 40
5.0
 40
6.0
 40
6.0
 40
6.0
 40
7.0
 40
7.0
 40
7.0
 40
8.0
 40
8.0
 40
8.0
 40
9.0
 40
9.0
 40
9.0
 40
10.0
 40
10.0
 40
10.0
 40
11.0
 40
11.0
 40
11.0
 40
12.0
 40
12.0
 40
12.0
 40
13.0
 40
13.0
 40
13.0
 40
14.0
 40
14.0
 40
14.0
 40
15.0
 40
15.0
 40
15.0
 40
15.0
 10
222.902721135799
 20
-157.3388888495548
 30
0.0
 10
220.2886472771318
 20
-164.8601136537183
 30
0.0
 10
218.6038702607405
 20
-164.4282421364362
 30
0.0
 10
217.2350907607571
 20
-167.9877793873367
 30
0.0
 10
216.1908823191779
 20
-170.7041725819158
 30
0.0
 10
215.7428476513212
 20
-173.9003383865096
 30
0.0
 10
215.5876245678639
 20
-175.3255528569107
 30
0.0
 10
215.5346992884718
 20
-175.8018157758997
 30
0.0
 10
215.5135334830842
 20
-176.0805024688096
 30
0.0
 10
215.5135334830842
 20
-176.0805024688096
 30
0.0
 10
215.5135334830842
 20
-176.0805024688096
 30
0.0
 10
200.5875065703119
 20
-176.0805024688096
 30
0.0
 10
200.5875065703119
 20
-176.0805024688096
 30
0.0
 10
200.5875065703119
 20
-176.0805024688096
 30
0.0
 10
200.5875065703119
 20
-182.0812559124049
 30
0.0
 10
200.5875065703119
 20
-182.0812559124049
 30
0.0
 10
200.5875065703119
 20
-182.0812559124049
 30
0.0
 10
215.5135334830842
 20
-182.0812559124049
 30
0.0
 10
215.5135334830842
 20
-182.0812559124049
 30
0.0
 10
215.5135334830842
 20
-182.0812559124049
 30
0.0
 10
215.5135334830842
 20
-182.0812559124049
 30
0.0
 10
215.5135334830842
 20
-182.0847871352773
 30
0.0
 10
215.5135334830842
 20
-182.2294165501174
 30
0.0
 10
215.4712018723093
 20
-185.7466006583961
 30
0.0
 10
211.5589083755659
 20
-190.523225548695
 30
0.0
 10
207.8370855954634
 20
-195.0634738250122
 30
0.0
 10
206.4471402900926
 20
-197.0990084924721
 30
0.0
 10
206.2354822362176
 20
-204.5320173203664
 30
0.0
 10
206.0908528213774
 20
-209.5802879896773
 30
0.0
 10
202.1115091537525
 20
-211.8486465163997
 30
0.0
 10
197.9945985170321
 20
-212.095573735305
 30
0.0
 10
193.8565220749243
 20
-211.8133558195227
 30
0.0
 10
190.5897964084233
 20
-208.3632003502789
 30
0.0
 10
190.5897964084233
 20
-204.1545640462637
 30
0.0
 10
190.5897964084233
 20
-204.1545640462637
 30
0.0
 10
190.5897964084233
 20
-151.6753383920658
 30
0.0
 10
190.5897964084233
 20
-151.6753383920658
 30
0.0
 10
190.5897964084233
 20
-144.1223541138977
 30
0.0
 10
195.9802296549598
 20
-137.8288106177497
 30
0.0
 10
203.1275108760462
 20
-136.4318028666341
 30
0.0
 10
208.8096718642377
 20
-135.7438549255972
 30
0.0
 10
216.417099647694
 20
-136.517500789158
 30
0.0
 10
220.1398447509143
 20
-140.2648067280267
 30
0.0
 10
223.047450480492
 20
-143.1915954057981
 30
0.0
 10
225.2910335809484
 20
-150.4632534074803
 30
0.0
 10
222.902721135799
 20
-157.3388888495548
 30
0.0
  0
SPLINE
  5
65
330
1F
100
AcDbEntity
  8
LAYER_1
 62
     1
100
AcDbSpline
210
0.0
220
0.0
230
1.0
 70
    11
 71
     3
 72
    17
 73
    13
 74
     0
 42
0.0000000001
 43
0.0000000001
 12
1.0
 22
0.0
 32
0.0
 13
1.0
 23
0.0
 33
0.0
 40
0.0
 40
0.0
 40
0.0
 40
0.0
 40
1.0
 40
1.0
 40
1.0
 40
2.0
 40
2.0
 40
2.0
 40
3.0
 40
3.0
 40
3.0
 40
4.0
 40
4.0
 40
4.0
 40
4.0
 10
185.24022303256
 20
-191.8120761355554
 30
0.0
 10
185.24022303256
 20
-193.3584734346085
 30
0.0
 10
183.9866203323138
 20
-194.6120761348554
 30
0.0
 10
182.4402230332594
 20
-194.6120761348554
 30
0.0
 10
180.8938257342063
 20
-194.6120761348554
 30
0.0
 10
179.64022303396
 20
-193.3584734346085
 30
0.0
 10
179.64022303396
 20
-191.8120761355554
 30
0.0
 10
179.64022303396
 20
-190.2656788365023
 30
0.0
 10
180.8938257342063
 20
-189.0120761362554
 30
0.0
 10
182.4402230332594
 20
-189.0120761362554
 30
0.0
 10
183.9866203323138
 20
-189.0120761362554
 30
0.0
 10
185.24022303256
 20
-190.2656788365023
 30
0.0
 10
185.24022303256
 20
-191.8120761355554
 30
0.0
  0
SPLINE
  5
66
330
1F
100
AcDbEntity
  8
LAYER_1
 62
     7
100
AcDbSpline
210
0.0
220
0.0
230
1.0
 70
    11
 71
     3
 72
    17
 73
    13
 74
     0
 42
0.0000000001
 43
0.0000000001
 12
1.0
 22
0.0
 32
0.0
 13
1.0
 23
0.0
 33
0.0
 40
0.0
 40
0.0
 40
0.0
 40
0.0
 40
1.0
 40
1.0
 40
1.0
 40
2.0
 40
2.0
 40
2.0
 40
3.0
 40
3.0
 40
3.0
 40
4.0
 40
4.0
 40
4.0
 40
4.0
 10
187.107744399075
 20
-191.8120761355554
 30
0.0
 10
187.107744399075
 20
-194.3898770052587
 30
0.0
 10
185.0180239029665
 20
-196.4795975013691
 30
0.0
 10
182.4402230332594
 20
-196.4795975013691
 30
0.0
 10
179.8624221635561
 20
-196.4795975013691
 30
0.0
 10
177.772701667447
 20
-194.3898770052587
 30
0.0
 10
177.772701667447
 20
-191.8120761355554
 30
0.0
 10
177.772701667447
 20
-189.2342752658522
 30
0.0
 10
179.8624221635561
 20
-187.1445547697418
 30
0.0
 10
182.4402230332594
 20
-187.1445547697418
 30
0.0
 10
185.0180239029665
 20
-187.1445547697418
 30
0.0
 10
187.107744399075
 20
-189.2342752658522
 30
0.0
 10
187.107744399075
 20
-191.8120761355554
 30
0.0
  0
SPLINE
  5
67
330
1F
100
AcDbEntity
  8
LAYER_1
 62
     1
100
AcDbSpline
210
0.0
220
0.0
230
1.0
 70
    11
 71
     3
 72
    17
 73
    13
 74
     0
 42
0.0000000001
 43
0.0000000001
 12
1.0
 22
0.0
 32
0.0
 13
1.0
 23
0.0
 33
0.0
 40
0.0
 40
0.0
 40
0.0
 40
0.0
 40
1.0
 40
1.0
 40
1.0
 40
2.0
 40
2.0
 40
2.0
 40
3.0
 40
3.0
 40
3.0
 40
4.0
 40
4.0
 40
4.0
 40
4.0
 10
185.24022303256
 20
-203.1726145294824
 30
0.0
 10
185.24022303256
 20
-204.7190118285355
 30
0.0
 10
183.9866203323125
 20
-205.972614528783
 30
0.0
 10
182.4402230332594
 20
-205.972614528783
 30
0.0
 10
180.8938257342063
 20
-205.972614528783
 30
0.0
 10
179.64022303396
 20
-204.7190118285355
 30
0.0
 10
179.64022303396
 20
-203.1726145294824
 30
0.0
 10
179.64022303396
 20
-201.6262172304299
 30
0.0
 10
180.8938257342063
 20
-200.372614530183
 30
0.0
 10
182.4402230332594
 20
-200.372614530183
 30
0.0
 10
183.9866203323125
 20
-200.372614530183
 30
0.0
 10
185.24022303256
 20
-201.6262172304299
 30
0.0
 10
185.24022303256
 20
-203.1726145294824
 30
0.0
  0
SPLINE
  5
68
330
1F
100
AcDbEntity
  8
LAYER_1
 62
     7
100
AcDbSpline
210
0.0
220
0.0
230
1.0
 70
    11
 71
     3
 72
    17
 73
    13
 74
     0
 42
0.0000000001
 43
0.0000000001
 12
1.0
 22
0.0
 32
0.0
 13
1.0
 23
0.0
 33
0.0
 40
0.0
 40
0.0
 40
0.0
 40
0.0
 40
1.0
 40
1.0
 40
1.0
 40
2.0
 40
2.0
 40
2.0
 40
3.0
 40
3.0
 40
3.0
 40
4.0
 40
4.0
 40
4.0
 40
4.0
 10
187.1077443990737
 20
-203.1726145294824
 30
0.0
 10
187.1077443990737
 20
-205.7504153991862
 30
0.0
 10
185.0180239029652
 20
-207.8401358952966
 30
0.0
 10
182.4402230332594
 20
-207.8401358952966
 30
0.0
 10
179.8624221635549
 20
-207.8401358952966
 30
0.0
 10
177.772701667447
 20
-205.7504153991862
 30
0.0
 10
177.772701667447
 20
-203.1726145294824
 30
0.0
 10
177.772701667447
 20
-200.5948136597791
 30
0.0
 10
179.8624221635549
 20
-198.5050931636694
 30
0.0
 10
182.4402230332594
 20
-198.5050931636694
 30
0.0
 10
185.0180239029652
 20
-198.5050931636694
 30
0.0
 10
187.1077443990737
 20
-200.5948136597791
 30
0.0
 10
187.1077443990737
 20
-203.1726145294824
 30
0.0
  0
ENDSEC
  0
SECTION
  2
OBJECTS
  0
DICTIONARY
  5
C
330
0
100
AcDbDictionary
  3
ACAD_GROUP
350
D
  3
ACAD_LAYOUT
350
1A
  3
ACAD_MATERIAL
350
3B
  3
ACAD_MLEADERSTYLE
350
8B
  3
ACAD_MLINESTYLE
350
17
  3
ACAD_PLOTSETTINGS
350
19
  3
ACAD_VISUALSTYLE
350
2A
  3
ACDBHEADERROUNDTRIPXREC
350
69
  3
ACDBVARIABLEDICTIONARY
350
89
  0
DICTIONARY
  5
D
102
{ACAD_REACTORS
330
C
102
}
330
C
100
AcDbDictionary
  0
DICTIONARY
  5
1A
102
{ACAD_REACTORS
330
C
102
}
330
C
100
AcDbDictionary
  0
DICTIONARY
  5
3B
102
{ACAD_REACTORS
330
C
102
}
330
C
100
AcDbDictionary
  3
BYBLOCK
350
3D
  3
BYLAYER
350
3C
  3
GLOBAL
350
3E
  0
DICTIONARY
  5
8B
102
{ACAD_REACTORS
330
C
102
}
330
C
100
AcDbDictionary
  0
DICTIONARY
  5
17
102
{ACAD_REACTORS
330
C
102
}
330
C
100
AcDbDictionary
  3
STANDARD
350
18
  0
DICTIONARY
  5
19
102
{ACAD_REACTORS
330
C
102
}
330
C
100
AcDbDictionary
  0
DICTIONARY
  5
2A
102
{ACAD_REACTORS
330
C
102
}
330
C
100
AcDbDictionary
  3
2DWIREFRAME
350
2F
  3
3D_HIDDEN
350
31
  3
3DWIREFRAME
350
30
  3
BASIC
350
32
  3
BRIGHTEN
350
36
  3
COLORCHANGE
350
3A
  3
CONCEPTUAL
350
34
  3
DIM
350
35
  3
FACEPATTERN
350
39
  3
FLAT
350
2B
  3
FLATWITHEDGES
350
2C
  3
GOURAUD
350
2D
  3
GOURAUDWITHEDGES
350
2E
  3
LINEPATTERN
350
38
  3
REALISTIC
350
33
  3
THICKEN
350
37
  0
DICTIONARY
  5
69
102
{ACAD_REACTORS
330
C
102
}
330
C
100
AcDbDictionary
  3
CEPSNTYPE
350
72
  3
DIMSTYLEDATA
350
88
  3
FINGERPRINTGUID
350
73
  3
HYPERLINKBASE
350
6C
  3
INSUNITS
350
71
  3
LAYOUTDICT
350
6E
  3
LWETCUNION
350
70
  3
PLOTSETDICT
350
6F
  3
PSVPSCALE
350
75
  3
PUCSBASE
350
78
  3
PUCSORGBACK
350
7E
  3
PUCSORGBOTTOM
350
7A
  3
PUCSORGFRONT
350
7D
  3
PUCSORGLEFT
350
7B
  3
PUCSORGRIGHT
350
7C
  3
PUCSORGTOP
350
79
  3
PUCSORTHOREF
350
76
  3
PUCSORTHOVIEW
350
77
  3
STYLESHEET
350
6D
  3
TSTACKALIGN
350
6A
  3
TSTACKSIZE
350
6B
  3
UCSBASE
350
81
  3
UCSORGBACK
350
87
  3
UCSORGBOTTOM
350
83
  3
UCSORGFRONT
350
86
  3
UCSORGLEFT
350
84
  3
UCSORGRIGHT
350
85
  3
UCSORGTOP
350
82
  3
UCSORTHOREF
350
7F
  3
UCSORTHOVIEW
350
80
  3
VERSIONGUID
350
74
  0
DICTIONARY
  5
89
102
{ACAD_REACTORS
330
C
102
}
330
C
100
AcDbDictionary
  3
DIMASSOC
350
8C
  3
HIDETEXT
350
8D
  0
MATERIAL
  5
3D
102
{ACAD_REACTORS
330
3B
102
}
102
{ACAD_XDICTIONARY
360
90
102
}
330
3B
100
AcDbMaterial
  1
ByBlock
  0
MATERIAL
  5
3C
102
{ACAD_REACTORS
330
3B
102
}
102
{ACAD_XDICTIONARY
360
8E
102
}
330
3B
100
AcDbMaterial
  1
ByLayer
  0
MATERIAL
  5
3E
102
{ACAD_REACTORS
330
3B
102
}
102
{ACAD_XDICTIONARY
360
92
102
}
330
3B
100
AcDbMaterial
  1
Global
  0
MLINESTYLE
  5
18
102
{ACAD_REACTORS
330
17
102
}
330
17
100
AcDbMlineStyle
  2
Standard
 70
     0
  3

 62
   256
 51
90.0
 52
90.0
 71
     2
 49
0.5
 62
   256
  6
BYLAYER
 49
-0.5
 62
   256
  6
BYLAYER
  0
ACAD_PROXY_OBJECT
  5
2F
102
{ACAD_REACTORS
330
2A
102
}
330
2A
100
AcDbProxyObject
 90
      499
 91
      501
 93
      436
310
42CC9915DA5C99599C985B595049028333333333333E3BF0000000000000FB0107901411070040501600405405064090741402480A0340
1001
ACAD
1000
AcDbSavedByObjectVersion
1070
     0
  0
ACAD_PROXY_OBJECT
  5
31
102
{ACAD_REACTORS
330
2A
102
}
330
2A
100
AcDbProxyObject
 90
      499
 91
      501
 93
      500
310
424CD108121A5919195B90640502408333333333333E3BF0000000000000FB01079024090700405020000000000001110200405405064090740C02480A0340
1001
ACAD
1000
AcDbSavedByObjectVersion
1070
     0
  0
ACAD_PROXY_OBJECT
  5
30
102
{ACAD_REACTORS
330
2A
102
}
330
2A
100
AcDbProxyObject
 90
      499
 91
      501
 93
      436
310
42CCD915DA5C99599C985B595059028333333333333E3BF0000000000000FB0107901411070040501600405405064090741402480A0340
1001
ACAD
1000
AcDbSavedByObjectVersion
1070
     0
  0
ACAD_PROXY_OBJECT
  5
32
102
{ACAD_REACTORS
330
2A
102
}
330
2A
100
AcDbProxyObject
 90
      499
 91
      501
 93
      388
310
4150985CDA58D07406404333333333333E3BF0000000000000FB0107A41107004050150841D405064090741402480A0350
1001
ACAD
1000
AcDbSavedByObjectVersion
1070
     0
  0
ACAD_PROXY_OBJECT
  5
36
102
{ACAD_REACTORS
330
2A
102
}
330
2A
100
AcDbProxyObject
 90
      499
 91
      501
 93
      428
310
42109C9A59DA1D195B90C409028333333333333E3BF0000000000000FB010790141107004050150841D405064090741402480A029950
1001
ACAD
1000
AcDbSavedByObjectVersion
1070
     0
  0
ACAD_PROXY_OBJECT
  5
3A
102
{ACAD_REACTORS
330
2A
102
}
330
2A
100
AcDbProxyObject
 90
      499
 91
      501
 93
      452
310
42D0DBDB1BDC90DA185B99D95104090240C333333333333E3BF0000000000000FB0108901411070040501508421405064090741402480A0350
1001
ACAD
1000
AcDbSavedByObjectVersion
1070
     0
  0
ACAD_PROXY_OBJECT
  5
34
102
{ACAD_REACTORS
330
2A
102
}
330
2A
100
AcDbProxyObject
 90
      499
 91
      501
 93
      500
310
4290DBDB98D95C1D1D585B10940D028333333333333E3BF0000000000000FB0107902409070040501000000000000111010841D405064090740C02480A0340
1001
ACAD
1000
AcDbSavedByObjectVersion
1070
     0
  0
ACAD_PROXY_OBJECT
  5
35
102
{ACAD_REACTORS
330
2A
102
}
330
2A
100
AcDbProxyObject
 90
      499
 91
      501
 93
      412
310
40D11A5B50B409028333333333333E3BF0000000000000FB010790141107004050150841D405064090741402480A02677FFFFFD0
1001
ACAD
1000
AcDbSavedByObjectVersion
1070
     0
  0
ACAD_PROXY_OBJECT
  5
39
102
{ACAD_REACTORS
330
2A
102
}
330
2A
100
AcDbProxyObject
 90
      499
 91
      501
 93
      444
310
42D19858D95C185D1D195C9B90F409028333333333333E3BF0000000000000FB010790141107004050150841D405064090741402480A0350
1001
ACAD
1000
AcDbSavedByObjectVersion
1070
     0
  0
ACAD_PROXY_OBJECT
  5
2B
102
{ACAD_REACTORS
330
2A
102
}
330
2A
100
AcDbProxyObject
 90
      499
 91
      501
 93
      388
310
41119B185D240901404333333333333E3BF0000000000000F9010740A41107004050150841D405064090741402480A1B50
1001
ACAD
1000
AcDbSavedByObjectVersion
1070
     0
  0
ACAD_PROXY_OBJECT
  5
2C
102
{ACAD_REACTORS
330
2A
102
}
330
2A
100
AcDbProxyObject
 90
      499
 91
      501
 93
      476
310
43519B185D15DA5D1A115919D95CD0140901404333333333333E3BF0000000000000F9010740901411070040501600405405064090741402480A1B50
1001
ACAD
1000
AcDbSavedByObjectVersion
1070
     0
  0
ACAD_PROXY_OBJECT
  5
2D
102
{ACAD_REACTORS
330
2A
102
}
330
2A
100
AcDbProxyObject
 90
      499
 91
      501
 93
      412
310
41D1DBDD5C985D5910240902404333333333333E3BF0000000000000F9010740A411070040501641D405064090741402480A1B50
1001
ACAD
1000
AcDbSavedByObjectVersion
1070
     0
  0
ACAD_PROXY_OBJECT
  5
2E
102
{ACAD_REACTORS
330
2A
102
}
330
2A
100
AcDbProxyObject
 90
      499
 91
      501
 93
      500
310
4411DBDD5C985D5915DA5D1A115919D95CD0340902404333333333333E3BF0000000000000F9010740901411070040501600405405064090741402480A1B50
1001
ACAD
1000
AcDbSavedByObjectVersion
1070
     0
  0
ACAD_PROXY_OBJECT
  5
38
102
{ACAD_REACTORS
330
2A
102
}
330
2A
100
AcDbProxyObject
 90
      499
 91
      501
 93
      444
310
42D31A5B995C185D1D195C9B90E409028333333333333E3BF0000000000000FB010790141107004050750841D405064090741402483A0350
1001
ACAD
1000
AcDbSavedByObjectVersion
1070
     0
  0
ACAD_PROXY_OBJECT
  5
33
102
{ACAD_REACTORS
330
2A
102
}
330
2A
100
AcDbProxyObject
 90
      499
 91
      501
 93
      420
310
425499585B1A5CDD1A58D08409028333333333333E3BF0000000000000FB01079019070040501508421405064090741402480A1B40
1001
ACAD
1000
AcDbSavedByObjectVersion
1070
     0
  0
ACAD_PROXY_OBJECT
  5
37
102
{ACAD_REACTORS
330
2A
102
}
330
2A
100
AcDbProxyObject
 90
      499
 91
      501
 93
      412
310
41D51A1A58DAD95B90D409028333333333333E3BF0000000000000FB010790141107004050150C41D405064090741402480A0350
1001
ACAD
1000
AcDbSavedByObjectVersion
1070
     0
  0
XRECORD
  5
72
102
{ACAD_REACTORS
330
69
102
}
330
69
100
AcDbXrecord
 90
        0
  0
XRECORD
  5
88
102
{ACAD_REACTORS
330
69
102
}
330
69
100
AcDbXrecord
1000
DSTYLE
1002
{
1070
   340
340
11
1002
}
  0
XRECORD
  5
73
102
{ACAD_REACTORS
330
69
102
}
330
69
100
AcDbXrecord
  1
{57CD95EE-1F06-445A-9D9B-FE0F8C754420}
  0
XRECORD
  5
6C
102
{ACAD_REACTORS
330
69
102
}
330
69
100
AcDbXrecord
  1

  0
XRECORD
  5
71
102
{ACAD_REACTORS
330
69
102
}
330
69
100
AcDbXrecord
 90
        4
  0
XRECORD
  5
6E
102
{ACAD_REACTORS
330
69
102
}
330
69
100
AcDbXrecord
340
1A
  0
XRECORD
  5
70
102
{ACAD_REACTORS
330
69
102
}
330
69
100
AcDbXrecord
 90
    10269
  0
XRECORD
  5
6F
102
{ACAD_REACTORS
330
69
102
}
330
69
100
AcDbXrecord
340
19
  0
XRECORD
  5
75
102
{ACAD_REACTORS
330
69
102
}
330
69
100
AcDbXrecord
 40
0.0
  0
XRECORD
  5
78
102
{ACAD_REACTORS
330
69
102
}
330
69
100
AcDbXrecord
340
0
  0
XRECORD
  5
7E
102
{ACAD_REACTORS
330
69
102
}
330
69
100
AcDbXrecord
 10
0.0
 20
0.0
 30
0.0
  0
XRECORD
  5
7A
102
{ACAD_REACTORS
330
69
102
}
330
69
100
AcDbXrecord
 10
0.0
 20
0.0
 30
0.0
  0
XRECORD
  5
7D
102
{ACAD_REACTORS
330
69
102
}
330
69
100
AcDbXrecord
 10
0.0
 20
0.0
 30
0.0
  0
XRECORD
  5
7B
102
{ACAD_REACTORS
330
69
102
}
330
69
100
AcDbXrecord
 10
0.0
 20
0.0
 30
0.0
  0
XRECORD
  5
7C
102
{ACAD_REACTORS
330
69
102
}
330
69
100
AcDbXrecord
 10
0.0
 20
0.0
 30
0.0
  0
XRECORD
  5
79
102
{ACAD_REACTORS
330
69
102
}
330
69
100
AcDbXrecord
 10
0.0
 20
0.0
 30
0.0
  0
XRECORD
  5
76
102
{ACAD_REACTORS
330
69
102
}
330
69
100
AcDbXrecord
340
0
  0
XRECORD
  5
77
102
{ACAD_REACTORS
330
69
102
}
330
69
100
AcDbXrecord
 70
     0
  0
XRECORD
  5
6D
102
{ACAD_REACTORS
330
69
102
}
330
69
100
AcDbXrecord
  1

  0
XRECORD
  5
6A
102
{ACAD_REACTORS
330
69
102
}
330
69
100
AcDbXrecord
 90
        1
  0
XRECORD
  5
6B
102
{ACAD_REACTORS
330
69
102
}
330
69
100
AcDbXrecord
 90
       70
  0
XRECORD
  5
81
102
{ACAD_REACTORS
330
69
102
}
330
69
100
AcDbXrecord
340
0
  0
XRECORD
  5
87
102
{ACAD_REACTORS
330
69
102
}
330
69
100
AcDbXrecord
 10
0.0
 20
0.0
 30
0.0
  0
XRECORD
  5
83
102
{ACAD_REACTORS
330
69
102
}
330
69
100
AcDbXrecord
 10
0.0
 20
0.0
 30
0.0
  0
XRECORD
  5
86
102
{ACAD_REACTORS
330
69
102
}
330
69
100
AcDbXrecord
 10
0.0
 20
0.0
 30
0.0
  0
XRECORD
  5
84
102
{ACAD_REACTORS
330
69
102
}
330
69
100
AcDbXrecord
 10
0.0
 20
0.0
 30
0.0
  0
XRECORD
  5
85
102
{ACAD_REACTORS
330
69
102
}
330
69
100
AcDbXrecord
 10
0.0
 20
0.0
 30
0.0
  0
XRECORD
  5
82
102
{ACAD_REACTORS
330
69
102
}
330
69
100
AcDbXrecord
 10
0.0
 20
0.0
 30
0.0
  0
XRECORD
  5
7F
102
{ACAD_REACTORS
330
69
102
}
330
69
100
AcDbXrecord
340
0
  0
XRECORD
  5
80
102
{ACAD_REACTORS
330
69
102
}
330
69
100
AcDbXrecord
 70
     0
  0
XRECORD
  5
74
102
{ACAD_REACTORS
330
69
102
}
330
69
100
AcDbXrecord
  1
{FAEB1C32-E019-11D5-929B-00C0DF256EC4}
  0
DICTIONARYVAR
  5
8C
102
{ACAD_REACTORS
330
89
102
}
330
89
100
DictionaryVariables
280
     0
  1
2
  0
DICTIONARYVAR
  5
8D
102
{ACAD_REACTORS
330
89
102
}
330
89
100
DictionaryVariables
280
     0
  1
1
  0
DICTIONARY
  5
90
330
3D
100
AcDbDictionary
280
     1
  3
ACAD_XREC_ROUNDTRIP
360
91
  0
DICTIONARY
  5
8E
330
3C
100
AcDbDictionary
280
     1
  3
ACAD_XREC_ROUNDTRIP
360
8F
  0
DICTIONARY
  5
92
330
3E
100
AcDbDictionary
280
     1
  3
ACAD_XREC_ROUNDTRIP
360
93
  0
XRECORD
  5
91
102
{ACAD_REACTORS
330
90
102
}
330
90
100
AcDbXrecord
102
MATERIAL
148
0.0
149
0.0
149
0.0
 93
        0
 94
      127
282
     0
 72
     1
 77
     1
171
     1
175
     1
179
     1
273
     0
  0
XRECORD
  5
8F
102
{ACAD_REACTORS
330
8E
102
}
330
8E
100
AcDbXrecord
102
MATERIAL
148
0.0
149
0.0
149
0.0
 93
        0
 94
      127
282
     0
 72
     1
 77
     1
171
     1
175
     1
179
     1
273
     0
  0
XRECORD
  5
93
102
{ACAD_REACTORS
330
92
102
}
330
92
100
AcDbXrecord
102
MATERIAL
148
0.0
149
0.0
149
0.0
 93
        0
 94
      127
282
     0
 72
     1
 77
     1
171
     1
175
     1
179
     1
273
     0
  0
ENDSEC
  0
EOF
